<svg width="174" height="50" viewBox="0 0 174 50" fill="none" xmlns="http://www.w3.org/2000/svg">
<rect width="50" height="50" rx="25" fill="#3D3939"/>
<g clip-path="url(#clip0_36_74)">
<path d="M39.3097 32.8321C39.308 31.6422 39.302 29.2069 39.302 28.3417C39.302 28.3417 39.302 28.3296 39.3026 28.3062C33.936 25.2187 25.8551 20.5482 22.185 18.4239C19.0773 20.222 12.8227 23.836 9.20431 25.9147C9.20431 26.9241 9.21168 29.9146 9.21108 30.8019C12.5117 32.7135 21.1547 37.7089 26.4683 40.7642C30.2404 38.5959 36.4079 35.0317 39.3102 33.3518V33.3061C39.3102 33.1898 39.31 33.0278 39.3097 32.8321Z" fill="white"/>
<path d="M22.1134 18.4647C18.9934 20.2699 12.84 23.8255 9.24344 25.8917C11.9688 27.4701 21.8233 33.167 26.3914 35.787C29.7268 33.8754 37.0309 29.656 39.302 28.3412C39.302 28.3412 39.302 28.3291 39.3026 28.3057C33.936 25.2182 25.8551 20.5477 22.185 18.4234L22.1134 18.4647Z" fill="#7ABEE6"/>
<path d="M39.5088 32.8321C39.5077 32.0289 39.5061 31.2258 39.5042 30.4226C39.5028 29.7177 39.4863 29.0108 39.5017 28.3059C39.5017 28.2712 39.4927 28.237 39.4754 28.2068C39.4581 28.1767 39.4332 28.1516 39.4032 28.134C37.0335 26.7707 34.665 25.4054 32.2976 24.038C29.9495 22.6827 27.6018 21.3264 25.2547 19.9692C24.2649 19.3969 23.2751 18.8244 22.2855 18.2517C22.2549 18.2341 22.2203 18.2248 22.185 18.2248C22.1497 18.2248 22.115 18.2341 22.0845 18.2517C20.5073 19.1642 18.9297 20.0761 17.3517 20.9874C15.5035 22.055 13.6549 23.1217 11.8059 24.1876C10.9055 24.7063 10.0049 25.2246 9.10395 25.7424C9.07401 25.7601 9.04917 25.7852 9.03189 25.8153C9.01461 25.8455 9.00547 25.8796 9.00537 25.9144C9.00537 27.0644 9.0071 28.2144 9.01055 29.3644C9.01108 29.6484 9.01151 29.9323 9.01185 30.2162C8.9969 30.4199 8.9982 30.6245 9.01573 30.828C9.03863 30.9637 9.18728 31.0177 9.29451 31.08L9.56752 31.2377L10.1681 31.5852C11.1749 32.168 12.1821 32.7506 13.1897 33.3328C14.4285 34.049 15.6673 34.7649 16.9063 35.4804C18.2234 36.241 19.5405 37.0014 20.8578 37.7613C22.1242 38.4919 23.3908 39.222 24.6576 39.9518C25.2202 40.2758 25.7748 40.6295 26.3518 40.9267C26.5219 41.0143 26.6817 40.8711 26.8275 40.7873L27.2457 40.5471C27.539 40.3782 27.8324 40.2093 28.1258 40.0404C29.4327 39.2879 30.7391 38.5345 32.045 37.7802C33.3563 37.0235 34.6673 36.2663 35.9779 35.5086C37.051 34.8884 38.124 34.2678 39.1969 33.6468C39.3105 33.5809 39.4821 33.5206 39.5055 33.3774C39.5211 33.1959 39.5222 33.0133 39.5086 32.8316C39.5086 32.5753 39.1103 32.5748 39.1103 32.8316C39.1103 33.0047 39.1103 33.1778 39.1103 33.3509L39.2089 33.179C37.6921 34.057 36.1749 34.9342 34.6572 35.8108C32.8186 36.8729 30.9796 37.9342 29.1404 38.9947C28.2162 39.5274 27.2918 40.0596 26.3671 40.5914H26.5681C24.1491 39.2005 21.7316 37.8072 19.3154 36.4114C16.9286 35.0337 14.5422 33.6547 12.1562 32.2745C11.2078 31.7265 10.2596 31.1782 9.31164 30.6294L9.41021 30.8014C9.41101 29.4757 9.40613 28.1501 9.40424 26.8245C9.40377 26.521 9.40351 26.2176 9.40344 25.9142L9.30477 26.0861C11.0051 25.1094 12.7043 24.1307 14.4025 23.15C16.2172 22.1028 18.0318 21.0548 19.8461 20.006C20.6594 19.5359 21.4725 19.0657 22.2855 18.5954H22.0845C24.0487 19.7322 26.0135 20.8683 27.9788 22.0035C30.4396 23.4253 32.9009 24.8462 35.3629 26.266C36.6423 27.0038 37.9221 27.741 39.2022 28.4777L39.1036 28.3057C39.0881 29.0106 39.1047 29.7175 39.1061 30.4224C39.1076 31.2256 39.1092 32.0287 39.1106 32.8319C39.1109 33.0882 39.5092 33.0887 39.5088 32.8321Z" fill="#211715"/>
<path d="M26.2319 35.7737C26.2319 37.1501 26.2343 38.5265 26.239 39.9029C26.2395 40.1813 26.2398 40.4597 26.24 40.7381C26.24 40.9944 26.6383 40.9948 26.6383 40.7381C26.6383 39.394 26.6333 38.0499 26.6311 36.7057C26.6306 36.3949 26.6303 36.084 26.6301 35.7732C26.6301 35.5169 26.2319 35.5165 26.2319 35.7732V35.7737Z" fill="#211715"/>
<path d="M9.34161 26.1777C10.1454 26.6435 10.9495 27.1089 11.7537 27.5739C12.8846 28.2281 14.0158 28.8819 15.1472 29.5354C16.4315 30.2774 17.7159 31.0191 19.0004 31.7606C20.2642 32.4899 21.5282 33.2188 22.7924 33.947C23.8616 34.563 24.9313 35.1781 26.0014 35.7926L26.3306 35.9818C26.5532 36.1095 26.7541 35.7655 26.5315 35.6379C25.4972 35.0449 24.4635 34.4508 23.4304 33.8556C22.1806 33.136 20.9311 32.4158 19.682 31.6951C18.3905 30.9498 17.0991 30.2042 15.8079 29.4583C14.6486 28.7878 13.4892 28.1174 12.3299 27.4471C11.4761 26.9532 10.6224 26.4592 9.76895 25.9649L9.54264 25.8338C9.3204 25.7051 9.11968 26.0492 9.34161 26.1777Z" fill="#211715"/>
<path d="M26.4333 37.2794C25.5411 36.7678 24.6495 36.2553 23.7585 35.7417C22.6714 35.1158 21.5846 34.4893 20.4982 33.8622C19.3775 33.2156 18.2571 32.5688 17.1369 31.9216C16.1256 31.3375 15.1144 30.753 14.1034 30.1683C13.3622 29.7397 12.621 29.3109 11.8799 28.8819C11.8141 28.8437 11.7482 28.8055 11.6823 28.7674C11.4601 28.6387 11.2594 28.9827 11.4813 29.1113C12.1788 29.5154 12.8766 29.9193 13.5745 30.323C14.5608 30.8939 15.5473 31.4641 16.5339 32.0337C17.6483 32.6775 18.7629 33.3212 19.8777 33.9646C20.9773 34.5991 22.0771 35.2332 23.1771 35.8671C24.0997 36.3988 25.0231 36.9298 25.9472 37.4601L26.2323 37.6236C26.455 37.7513 26.6558 37.4074 26.4333 37.2797V37.2794Z" fill="#211715"/>
<path d="M25.3403 38.2631C24.4761 37.7676 23.6132 37.2698 22.7516 36.7696C22.5293 36.6409 22.3286 36.9849 22.5505 37.1134C23.4126 37.6127 24.2755 38.1106 25.1392 38.6069C25.362 38.7347 25.5628 38.3908 25.3403 38.2631Z" fill="#211715"/>
<path d="M33.834 37.0762C33.3742 37.3403 31.8831 38.2013 31.2049 38.5921C30.5505 38.2162 29.3897 37.5474 28.523 37.0471C29.342 36.576 30.2429 36.0572 31.1541 35.5312C32.0436 36.0448 33.2117 36.719 33.834 37.0762Z" fill="#FFDA71"/>
<path d="M28.523 37.2463H28.524L28.4235 37.2191C29.2563 37.7006 30.0898 38.1811 30.9239 38.6604C31.0005 38.7177 31.0867 38.7608 31.1784 38.7876C31.278 38.8011 31.3704 38.7267 31.4528 38.6791L31.9238 38.4077L32.9943 37.7904C33.3076 37.6096 33.621 37.429 33.9345 37.2485C33.9641 37.2306 33.9885 37.2054 34.0055 37.1753C34.0225 37.1452 34.0314 37.1112 34.0314 37.0766C34.0314 37.042 34.0225 37.008 34.0055 36.9779C33.9885 36.9478 33.9641 36.9226 33.9345 36.9047C33.0403 36.3913 32.1471 35.8763 31.2547 35.3597C31.0322 35.2312 30.8315 35.5753 31.0537 35.7036C31.9466 36.2191 32.8398 36.7341 33.7335 37.2485V36.9043C32.8563 37.4082 31.9801 37.9135 31.1049 38.4202H31.3059C30.8678 38.1685 30.4297 37.9163 29.9916 37.6635C29.746 37.5222 29.5004 37.3806 29.2548 37.239L28.8892 37.0278C28.7869 36.9688 28.644 36.8477 28.5231 36.8477C28.2668 36.8477 28.2664 37.246 28.5231 37.246L28.523 37.2463Z" fill="#211715"/>
<path d="M37.5565 31.6036C36.3313 32.3131 35.1056 33.0216 33.8794 33.7291C32.2306 34.6811 30.5811 35.6323 28.931 36.5826C28.0777 37.0737 27.224 37.5644 26.3701 38.0546C26.1476 38.182 26.3481 38.5262 26.5711 38.3985C28.1481 37.4958 29.7231 36.5894 31.2961 35.6792C32.8547 34.7806 34.4128 33.8812 35.9705 32.981C36.5662 32.6367 37.1618 32.2921 37.7574 31.9474C37.9792 31.8189 37.7788 31.4746 37.5564 31.6035L37.5565 31.6036Z" fill="#211715"/>
<path d="M26.5137 35.9464C28.244 34.9547 29.9727 33.9599 31.6996 32.9621C33.5627 31.8878 35.4252 30.8125 37.2872 29.7362C37.9923 29.3287 38.6973 28.921 39.4023 28.513C39.624 28.3847 39.4237 28.0404 39.2012 28.1691C37.7303 29.021 36.2587 29.8717 34.7865 30.7213C32.8523 31.8382 30.9174 32.9541 28.9818 34.0689C28.0923 34.5809 27.2027 35.0922 26.3127 35.6028C26.0904 35.7303 26.2907 36.0745 26.5138 35.9467L26.5137 35.9464Z" fill="#211715"/>
<path d="M35.1111 25.5326C35.1098 24.6443 35.1053 22.8263 35.1053 22.18C35.1053 22.18 35.1053 22.1711 35.1058 22.1536C31.0995 19.8486 25.0665 16.3618 22.3266 14.7757C20.0067 16.1181 15.3371 18.8161 12.6357 20.3679C12.6357 21.1215 12.6413 23.3541 12.6408 24.0164C15.105 25.4432 21.5575 29.1731 25.5247 31.454C28.3408 29.8352 32.9451 27.1743 35.1118 25.9202V25.8861C35.1114 25.7998 35.1113 25.6788 35.1111 25.5326Z" fill="white"/>
<path d="M22.1527 14.8765C19.7799 16.2491 15.2712 18.8541 12.6357 20.3681C12.6357 21.1217 12.6412 23.3543 12.6407 24.0166C13.7124 24.6372 15.5381 25.6932 17.5862 26.8764C17.5847 25.9671 17.5808 23.9584 17.5804 23.1941C21.7455 20.788 25.2546 18.759 27.2338 17.6133C25.2731 16.4805 23.4985 15.4543 22.3265 14.7756L22.1527 14.8765Z" fill="#FFDA71"/>
<path d="M35.3102 25.5326C35.3085 24.4075 35.2803 23.2788 35.3049 22.1536C35.3049 22.1188 35.2958 22.0846 35.2785 22.0544C35.2612 22.0243 35.2363 21.9992 35.2063 21.9816C33.4377 20.964 31.6699 19.9452 29.9029 18.9249C28.1501 17.9132 26.3978 16.901 24.6458 15.8882C23.9064 15.46 23.1668 15.0319 22.4271 14.604C22.3965 14.5864 22.3618 14.5771 22.3266 14.5771C22.2913 14.5771 22.2566 14.5864 22.226 14.604C21.0469 15.2861 19.8675 15.9679 18.6878 16.6494C17.3115 17.4443 15.9349 18.2386 14.558 19.0323C13.8839 19.4206 13.2097 19.8086 12.5353 20.1963C12.5053 20.2139 12.4805 20.2391 12.4632 20.2692C12.4459 20.2994 12.4367 20.3335 12.4366 20.3682C12.4366 21.2369 12.4379 22.1056 12.4406 22.9743C12.441 23.1846 12.4413 23.3948 12.4415 23.6051C12.4415 23.7468 12.4109 23.9319 12.4489 24.0697C12.4894 24.2169 12.7665 24.3196 12.8919 24.3923L13.3499 24.6575C15.0282 25.6286 16.7068 26.599 18.3859 27.5686C20.3118 28.6808 22.2382 29.7921 24.1652 30.9022L24.8245 31.2818L25.1281 31.4564C25.2298 31.5242 25.3365 31.5843 25.4472 31.6362C25.5786 31.6871 25.7015 31.5819 25.8111 31.5188L26.1424 31.3284L26.8122 30.9427C27.7845 30.3828 28.7566 29.8223 29.7284 29.2612C31.5083 28.234 33.2876 27.2057 35.0664 26.1764C35.1751 26.1135 35.3 26.0644 35.3101 25.9205C35.3192 25.7926 35.3101 25.6609 35.3101 25.5322C35.3101 25.276 34.9118 25.2755 34.9118 25.5322C34.9118 25.6615 34.9118 25.7909 34.9118 25.9205L35.0105 25.7486C33.8806 26.4025 32.7504 27.056 31.6199 27.7089C30.2446 28.5036 28.869 29.2976 27.4929 30.0909C26.8032 30.4883 26.1133 30.8855 25.4234 31.2824H25.6244C23.8208 30.2452 22.0182 29.2064 20.2166 28.1659C18.4367 27.1382 16.6571 26.1098 14.8779 25.0809C14.1653 24.669 13.4532 24.257 12.7414 23.8447L12.84 24.0166C12.8406 23.0298 12.837 22.043 12.8355 21.0561C12.8355 20.8269 12.8353 20.5975 12.8349 20.3681L12.7363 20.5401C14.0074 19.8099 15.2776 19.0783 16.547 18.3451C17.8986 17.5653 19.2498 16.7849 20.6006 16.004C21.2096 15.6522 21.8184 15.3001 22.4271 14.9479H22.226C23.6921 15.7964 25.1585 16.6443 26.6253 17.4916C28.462 18.5529 30.2992 19.6134 32.1367 20.6731C33.0926 21.224 34.0487 21.775 35.0052 22.3259L34.9067 22.154C34.882 23.2791 34.9102 24.4076 34.9119 25.533C34.9123 25.7889 35.3106 25.7894 35.3102 25.5326Z" fill="#211715"/>
<path d="M25.2974 27.7288C25.2974 28.5715 25.3033 29.4141 25.3034 30.2568C25.3034 30.513 25.7017 30.5135 25.7017 30.2568C25.7017 29.4141 25.6957 28.5715 25.6956 27.7288C25.6956 27.4726 25.2974 27.4721 25.2974 27.7288Z" fill="#211715"/>
<path d="M25.6353 27.6057C24.1241 26.7392 22.6145 25.87 21.1064 24.9982C19.4795 24.0594 17.8529 23.1199 16.2268 22.1795C15.6109 21.8234 14.9951 21.4671 14.3794 21.1105C14.1572 20.9819 13.9564 21.3259 14.1783 21.4544C15.4631 22.1986 16.7482 22.9418 18.0338 23.6841C19.7231 24.6598 21.4128 25.6348 23.103 26.6091C23.8796 27.0566 24.6567 27.5034 25.4343 27.9496C25.657 28.0773 25.8578 27.7333 25.6353 27.6057Z" fill="#211715"/>
<path d="M25.5837 27.9013C26.6758 27.2754 27.7669 26.6476 28.8569 26.0178C30.0286 25.342 31.2 24.6657 32.3711 23.989C32.8196 23.7301 33.2679 23.4708 33.7162 23.2111C33.938 23.0827 33.7377 22.7384 33.5152 22.8672C32.5867 23.4049 31.6578 23.9418 30.7286 24.4778C29.5125 25.18 28.2959 25.8816 27.079 26.5827C26.5137 26.9079 25.9483 27.2328 25.3827 27.5574C25.1604 27.6848 25.3608 28.0291 25.5837 27.9013Z" fill="#211715"/>
<path d="M17.6921 23.3594C19.1495 22.5176 20.6067 21.6756 22.0637 20.8333C23.2471 20.1496 24.4303 19.4654 25.6135 18.7808C26.1195 18.488 26.6256 18.1952 27.1316 17.9023C27.3533 17.774 27.1531 17.4297 26.9305 17.5584C25.952 18.1249 24.9733 18.6912 23.9943 19.2571C22.6777 20.0184 21.3609 20.7796 20.0441 21.5405C19.193 22.0323 18.3421 22.5239 17.4915 23.0155C17.2695 23.1437 17.4699 23.4879 17.6924 23.3594H17.6921Z" fill="#211715"/>
<path d="M17.3809 23.1923C17.3822 24.3217 17.3869 25.4511 17.387 26.5805C17.387 26.8367 17.7853 26.8371 17.7853 26.5805C17.7853 25.4511 17.7804 24.3217 17.7791 23.1923C17.7791 22.9361 17.3809 22.9357 17.3809 23.1923Z" fill="#211715"/>
<path d="M23.6661 23.2596C23.6552 23.4729 23.601 23.6818 23.5068 23.8735C23.309 24.2618 22.9275 24.5275 22.5257 24.6968C22.124 24.866 22.0664 24.822 21.6508 24.9533C21.3267 25.0555 20.9873 25.2028 20.8484 25.5307C20.7902 25.6987 20.7557 25.874 20.7458 26.0516C20.7159 26.7234 20.7213 27.4223 20.7129 28.1137C20.7134 28.1619 20.6986 28.2091 20.6705 28.2483C20.6423 28.2875 20.6025 28.3167 20.5566 28.3317C20.0827 28.4698 19.5833 28.4965 19.0975 28.4095C19.0472 28.3928 19.0025 28.3628 18.968 28.3226C18.9155 28.273 18.8776 28.2099 18.8585 28.1403C18.8211 27.8264 18.8031 27.5241 18.7924 27.2215C18.4446 27.2987 18.0472 27.4321 17.6773 27.3418C17.4201 27.2791 17.1794 27.083 17.1396 26.8212L17.107 26.6051C17.0495 25.5477 16.9922 25.6808 16.9347 24.6237C16.9154 24.2679 16.8999 23.8928 17.0624 23.5757C17.2022 23.3385 17.3952 23.137 17.6263 22.9873C18.0722 22.6614 18.5557 22.3904 19.0664 22.1801C19.0664 22.1801 23.0009 23.1238 23.6661 23.2596Z" fill="#7ABEE6"/>
<path d="M22.8617 23.614C23.0907 23.4858 23.3857 23.3414 23.6704 23.1707C24.143 22.888 24.5922 22.5306 24.6851 22.051C24.7169 21.8434 24.7159 21.6322 24.6821 21.4249C24.5912 20.6909 24.4176 19.754 23.9602 19.1502C23.6814 18.7807 23.2413 18.3038 22.8122 18.084C22.8122 18.084 22.0677 17.7236 21.3445 17.6764C20.1833 17.6007 19.5891 18.0956 19.5891 18.0956C18.9163 18.6055 18.4497 19.3407 18.2749 20.1666L18.0722 21.3331L17.999 21.7542L22.8617 23.614Z" fill="white"/>
<path d="M18.2071 29.36C18.1858 29.2558 18.1876 29.1482 18.2121 29.0447C18.2367 28.9412 18.2835 28.8442 18.3493 28.7607C18.4999 28.5818 18.6837 28.4339 18.8906 28.3251C19.0997 28.4887 19.9492 28.5204 20.5571 28.332C20.5778 28.3257 20.5973 28.3162 20.6152 28.304C20.6226 28.3749 20.6274 28.4188 20.6274 28.4188C20.6906 28.9963 20.3409 29.2285 20.1188 29.3606C19.8544 29.5177 19.5696 29.6376 19.2725 29.7169C19.094 29.772 18.9061 29.7905 18.7202 29.7711C18.6274 29.7601 18.5382 29.729 18.4586 29.68C18.3791 29.631 18.3112 29.5652 18.2596 29.4873C18.2363 29.4475 18.2186 29.4047 18.2071 29.36Z" fill="white"/>
<path d="M16.4285 28.1088C16.4555 28.0327 16.4939 27.961 16.5423 27.8964C16.706 27.7065 16.9053 27.5504 17.129 27.437C17.2429 27.3586 17.3721 27.305 17.5081 27.2796C17.5623 27.3068 17.6193 27.3277 17.6782 27.3421C18.0481 27.4324 18.4454 27.2991 18.7933 27.2219C18.8008 27.4399 18.8123 27.6579 18.8321 27.88L18.6759 27.9058C18.6876 28.1547 18.4668 28.3489 18.2527 28.4763C17.997 28.6281 17.7216 28.744 17.4343 28.8207C17.2617 28.8741 17.08 28.8917 16.9004 28.8725C16.8107 28.8621 16.7243 28.8322 16.6475 28.7849C16.5706 28.7375 16.505 28.6739 16.4554 28.5985C16.4155 28.5237 16.3924 28.4412 16.3877 28.3566C16.3831 28.272 16.397 28.1874 16.4285 28.1088Z" fill="white"/>
<path d="M20.4283 28.4188C20.4484 28.5437 20.4351 28.6716 20.3896 28.7896C20.3441 28.9075 20.2681 29.0113 20.1694 29.0903C19.8831 29.2943 19.5605 29.4418 19.219 29.5249C18.9428 29.598 18.3938 29.6461 18.3885 29.2226C18.3837 28.8443 18.7742 28.6252 19.0562 28.4583C19.2767 28.328 19.0761 27.9836 18.8551 28.1145C18.5219 28.3114 18.1873 28.5321 18.0462 28.911C17.9751 29.0844 17.9705 29.278 18.0332 29.4546C18.096 29.6312 18.2216 29.7784 18.3862 29.8681C18.7688 30.0686 19.2199 29.9611 19.6044 29.8216C19.9186 29.7178 20.2123 29.56 20.4723 29.3553C20.6035 29.2402 20.7043 29.0947 20.7661 28.9315C20.8278 28.7683 20.8486 28.5924 20.8264 28.4193C20.8251 28.367 20.8037 28.3171 20.7666 28.28C20.7296 28.243 20.6797 28.2216 20.6273 28.2202C20.5746 28.2206 20.5242 28.2417 20.4869 28.2789C20.4496 28.3162 20.4285 28.3666 20.4282 28.4193L20.4283 28.4188Z" fill="#211715"/>
<path d="M17.4287 27.0913C17.2526 27.139 17.086 27.2164 16.9361 27.3203C16.7868 27.4061 16.6472 27.5078 16.5199 27.6237C16.2748 27.8573 16.1136 28.222 16.2221 28.5596C16.3368 28.9167 16.7114 29.09 17.0658 29.0808C17.4481 29.0708 17.8399 28.9183 18.1763 28.7461C18.5074 28.5769 18.8781 28.3198 18.8753 27.9058C18.8737 27.6496 18.4754 27.6491 18.4771 27.9058C18.4791 28.1984 18.0474 28.3747 17.8299 28.4724C17.6725 28.5422 17.5092 28.598 17.342 28.6391C17.1737 28.6942 16.9926 28.6974 16.8224 28.6482C16.5347 28.5403 16.5418 28.2273 16.7057 28.0091C16.8095 27.8849 16.9351 27.7806 17.0764 27.7016C17.2148 27.5997 17.37 27.5231 17.5351 27.4754C17.7861 27.4243 17.6799 27.0403 17.4293 27.0913H17.4287Z" fill="#211715"/>
<path d="M19.0142 21.9883C18.4483 22.2184 17.9149 22.5215 17.4276 22.8898C17.1836 23.0584 16.9867 23.2865 16.8558 23.5526C16.7483 23.832 16.7044 24.1318 16.7275 24.4303C16.742 24.86 16.7833 25.2866 16.8348 25.7129C16.8814 26.0984 16.8792 26.491 16.9484 26.8729C16.9791 27.009 17.0426 27.1354 17.1336 27.2412C17.2245 27.347 17.34 27.4289 17.4699 27.4797C17.8044 27.6235 18.1729 27.57 18.5169 27.4923C18.7668 27.4358 18.6611 27.0517 18.4111 27.1083C18.0394 27.1923 17.4121 27.2576 17.3295 26.7483C17.275 26.4122 17.2754 26.0656 17.2344 25.7241C17.1914 25.3657 17.1561 25.0087 17.1361 24.6488C17.108 24.395 17.1166 24.1384 17.1618 23.8871C17.2282 23.6454 17.3725 23.4325 17.5723 23.2812C18.0395 22.9021 18.5614 22.5958 19.1203 22.3729C19.1703 22.3575 19.2126 22.3235 19.2385 22.278C19.2644 22.2325 19.272 22.1788 19.2597 22.1279C19.2454 22.0771 19.2117 22.0339 19.1659 22.0078C19.12 21.9817 19.0657 21.9748 19.0147 21.9885L19.0142 21.9883Z" fill="#211715"/>
<path d="M18.9729 23.9085C18.6317 24.1457 18.5461 24.5175 18.5399 24.9084C18.5336 25.3049 18.5547 25.7013 18.5671 26.0975C18.5833 26.6172 18.581 27.1376 18.6159 27.6566C18.632 27.897 18.6144 28.1908 18.767 28.3901C18.9135 28.5812 19.093 28.6214 19.3201 28.6453C19.5381 28.6665 19.7577 28.6658 19.9756 28.643C20.2022 28.6294 20.4259 28.5854 20.6409 28.5122C20.9007 28.411 20.9121 28.1619 20.9145 27.9209C20.917 27.6471 20.918 27.3733 20.9207 27.0997C20.9233 26.829 20.9274 26.5582 20.9364 26.2875C20.9305 26.0659 20.9597 25.8448 21.0229 25.6323C21.1558 25.2723 21.6277 25.1538 21.9598 25.0736C22.3905 24.9697 22.8051 24.8347 23.1638 24.5631C23.3807 24.401 23.5572 24.191 23.6796 23.9495C23.8021 23.708 23.8671 23.4415 23.8696 23.1707C23.8795 22.9143 23.4813 22.9148 23.4713 23.1707C23.4703 23.3744 23.4232 23.5752 23.3333 23.758C23.2435 23.9409 23.1133 24.1009 22.9527 24.2261C22.6677 24.4391 22.3393 24.5866 21.9908 24.658C21.6358 24.7369 21.2589 24.8373 20.9682 25.0663C20.6455 25.3202 20.5659 25.7082 20.5453 26.0991C20.5191 26.5926 20.5222 27.0882 20.5188 27.5826C20.518 27.7035 20.517 27.8243 20.5159 27.9451C20.5227 28.0014 20.5221 28.0583 20.514 28.1144C20.5028 28.1463 20.5074 28.1343 20.4864 28.1458C20.3951 28.1819 20.2991 28.2047 20.2013 28.2134C20.1002 28.2317 19.9982 28.2445 19.8958 28.2519C19.7042 28.2677 19.5115 28.2662 19.3201 28.2473C19.2574 28.2467 19.1954 28.2338 19.1376 28.2095C19.0449 28.1543 19.0474 28.0475 19.038 27.9547C18.9924 27.4858 18.9852 27.0148 18.9758 26.5441C18.9669 26.0971 18.9441 25.6503 18.9381 25.2032C18.9359 25.0348 18.9331 24.8646 18.946 24.6971C18.9471 24.6831 18.9482 24.6692 18.9496 24.6552C18.9537 24.6154 18.947 24.6674 18.9507 24.6487C18.9605 24.5956 18.9749 24.5436 18.9938 24.4931C19.0287 24.397 19.0913 24.3134 19.1735 24.2527C19.3826 24.1073 19.1835 23.7619 18.9725 23.9088L18.9729 23.9085Z" fill="#211715"/>
<path d="M19.4887 17.9237C18.7733 18.4619 18.2746 19.2388 18.0831 20.1133C18.0298 20.3633 18.4137 20.4701 18.4671 20.2191C18.6295 19.4439 19.063 18.752 19.6897 18.2676C19.734 18.2398 19.7661 18.1961 19.7794 18.1455C19.7926 18.0949 19.7861 18.0412 19.7611 17.9952C19.7342 17.9498 19.6905 17.9169 19.6396 17.9035C19.5886 17.8901 19.5344 17.8974 19.4887 17.9237Z" fill="#211715"/>
<path d="M18.2669 22.1797C18.0455 22.0416 17.9534 21.8084 17.9172 21.5607C17.8767 21.2832 17.9242 20.9298 18.3281 20.8288C18.4732 20.7999 18.6239 20.8281 18.7488 20.9074C18.8803 20.9839 18.9868 21.0968 19.0556 21.2325C19.1243 21.3683 19.1523 21.521 19.1362 21.6723C19.1089 22.0014 18.7986 22.3031 18.4718 22.2554C18.399 22.2448 18.3292 22.219 18.2669 22.1797Z" fill="white"/>
<path d="M18.3674 22.0078C18.3217 21.9786 18.2812 21.9419 18.2479 21.8992C18.2657 21.9215 18.2399 21.8871 18.2361 21.8816C18.2267 21.8673 18.2177 21.8527 18.2093 21.8379C18.2025 21.826 18.196 21.8139 18.1898 21.8017C18.1898 21.8017 18.1652 21.7456 18.1764 21.7737C18.1536 21.7148 18.1361 21.654 18.1239 21.592C18.1203 21.5746 18.1172 21.5572 18.114 21.5395C18.1117 21.526 18.1064 21.4779 18.1122 21.5313C18.1095 21.5061 18.1069 21.4815 18.1056 21.4557C18.1037 21.4092 18.1047 21.3627 18.1087 21.3163C18.1115 21.2791 18.1087 21.3163 18.1077 21.323C18.1103 21.3103 18.1123 21.2975 18.1152 21.2848C18.1213 21.2569 18.1303 21.2303 18.1392 21.2031C18.1247 21.2479 18.1477 21.1865 18.1552 21.1732C18.1627 21.16 18.2031 21.1098 18.1736 21.1425C18.1899 21.1242 18.2071 21.1067 18.2252 21.0902C18.2483 21.0694 18.1864 21.1125 18.2324 21.0849C18.2478 21.0758 18.2622 21.0657 18.2786 21.0572C18.2896 21.0513 18.3009 21.0455 18.3123 21.0406C18.2837 21.053 18.3151 21.0406 18.3199 21.0387C18.3495 21.029 18.3796 21.021 18.4102 21.0148C18.3657 21.0224 18.4286 21.016 18.445 21.0163C18.4615 21.0166 18.4779 21.0175 18.4942 21.0193C18.5082 21.0207 18.5077 21.0207 18.4925 21.0193C18.5031 21.0211 18.5135 21.0234 18.5238 21.026C18.5819 21.0397 18.6363 21.066 18.6831 21.103C18.6854 21.1046 18.713 21.1255 18.693 21.1095C18.7038 21.1178 18.7142 21.1267 18.7244 21.1356C18.7518 21.1594 18.7778 21.1848 18.8021 21.2118C18.866 21.2829 18.9095 21.37 18.9281 21.4638C18.9274 21.4605 18.9393 21.5223 18.9349 21.4945C18.9305 21.4668 18.9383 21.5306 18.938 21.527C18.9402 21.5576 18.9408 21.5884 18.9399 21.6191C18.9399 21.6368 18.9385 21.6544 18.937 21.6721C18.9377 21.6634 18.9442 21.6382 18.936 21.6792C18.9291 21.7122 18.9202 21.7448 18.9093 21.7767C18.8894 21.8364 18.9179 21.7618 18.9015 21.7945C18.8926 21.8128 18.8829 21.8307 18.8725 21.8482C18.8604 21.8725 18.8444 21.8947 18.8253 21.914C18.8029 21.939 18.7786 21.9623 18.7527 21.9837C18.7742 21.9661 18.7486 21.9864 18.745 21.9887C18.7283 21.9994 18.7118 22.0104 18.6942 22.0199C18.6502 22.0439 18.6013 22.0578 18.5513 22.0608C18.4858 22.0629 18.4214 22.0442 18.3673 22.0074C18.3217 21.9807 18.2673 21.9733 18.2162 21.9867C18.1651 22.0001 18.1215 22.0332 18.0948 22.0788C18.0681 22.1244 18.0607 22.1788 18.0741 22.2299C18.0875 22.281 18.1206 22.3246 18.1662 22.3513C18.5346 22.5703 18.9628 22.4216 19.1944 22.0832C19.2901 21.9311 19.3405 21.7549 19.3398 21.5752C19.3391 21.3955 19.2873 21.2197 19.1905 21.0684C18.9932 20.7651 18.6229 20.5396 18.2546 20.6419C18.0997 20.6848 17.9628 20.7766 17.8643 20.9037C17.7659 21.0308 17.7112 21.1863 17.7084 21.347C17.6838 21.7288 17.8393 22.1396 18.1664 22.3513C18.212 22.378 18.2664 22.3854 18.3175 22.372C18.3428 22.3654 18.3665 22.3538 18.3873 22.338C18.4082 22.3222 18.4257 22.3024 18.4389 22.2799C18.4521 22.2573 18.4607 22.2323 18.4643 22.2064C18.4678 22.1805 18.4662 22.1541 18.4596 22.1288C18.453 22.1035 18.4414 22.0798 18.4256 22.0589C18.4098 22.0381 18.39 22.0206 18.3675 22.0074L18.3674 22.0078Z" fill="#211715"/>
<path d="M19.5476 19.5522V21.7719C19.5476 22.0282 19.9459 22.0286 19.9459 21.7719V19.5522C19.9459 19.296 19.5476 19.2955 19.5476 19.5522Z" fill="#211715"/>
<path d="M19.6776 22.1495C19.0651 22.2532 18.44 22.4922 17.5369 22.642C18.0936 22.9104 19.1405 23.4258 20.1416 23.9264C21.0115 23.5723 21.2592 23.5105 21.8036 23.3018C20.8928 22.8319 19.6793 22.1487 19.6776 22.1495Z" fill="white"/>
<path d="M19.6247 21.9574C18.9026 22.0825 18.2079 22.328 17.484 22.4501C17.3183 22.4779 17.2878 22.7423 17.4365 22.814C18.0251 23.0979 18.6114 23.3874 19.1963 23.6778C19.372 23.765 19.5476 23.8523 19.7231 23.9398C19.8151 23.9857 19.9066 24.0326 19.999 24.0776C20.0461 24.1032 20.0991 24.1162 20.1527 24.1156C20.2064 24.115 20.259 24.1006 20.3055 24.0739C20.5802 23.9632 20.8567 23.8573 21.1351 23.7564C21.3759 23.6697 21.6175 23.5855 21.8566 23.4941C22.0038 23.4378 22.0694 23.2153 21.9041 23.1301C21.4324 22.8863 20.9655 22.6332 20.5003 22.3774C20.2605 22.2456 20.0247 22.0963 19.7782 21.9775C19.5483 21.8667 19.3461 22.21 19.5772 22.3214C19.8237 22.4402 20.0595 22.5895 20.2993 22.7213C20.7646 22.9771 21.2315 23.2302 21.7032 23.474L21.7508 23.1101C21.1977 23.3216 20.6379 23.5116 20.089 23.7348L20.2424 23.7547C19.3762 23.3216 18.5099 22.8906 17.6376 22.4703L17.5901 22.8343C18.3139 22.7122 19.0086 22.4668 19.7307 22.3416C19.7815 22.3273 19.8245 22.2936 19.8506 22.2477C19.8767 22.2019 19.8837 22.1477 19.8701 22.0967C19.8551 22.0463 19.8212 22.0036 19.7754 21.9777C19.7297 21.9517 19.6757 21.9445 19.6247 21.9574Z" fill="#211715"/>
<path d="M21.2811 23.0717C21.3398 22.5958 21.8378 22.199 22.4773 22.4743C22.5739 22.7712 22.7417 23.22 22.8448 23.5952C22.7043 23.7089 22.5827 23.8076 22.5827 23.8076C22.377 24.056 21.9226 24.0113 21.6754 23.8609C21.5414 23.7805 21.4331 23.6636 21.3632 23.5238C21.2934 23.3839 21.2649 23.2271 21.2811 23.0717Z" fill="white"/>
<path d="M22.4084 22.237C22.1416 22.152 21.8523 22.1736 21.6011 22.2973C21.3858 22.4118 21.2204 22.6017 21.1366 22.8306C20.9395 23.3484 21.2513 23.9314 21.7585 24.1172C22.0688 24.2308 22.4933 24.2143 22.7235 23.9479C22.7597 23.91 22.7798 23.8595 22.7798 23.8071C22.7798 23.7547 22.7597 23.7042 22.7235 23.6663C22.6859 23.6294 22.6353 23.6087 22.5827 23.6087C22.53 23.6087 22.4795 23.6294 22.4419 23.6663C22.4319 23.6773 22.422 23.6874 22.412 23.6982C22.4055 23.7056 22.3753 23.7297 22.4063 23.7062C22.3852 23.7213 22.3631 23.7347 22.34 23.7465C22.3301 23.7518 22.2953 23.763 22.3316 23.7508C22.3203 23.7546 22.3094 23.7586 22.298 23.7619C22.2693 23.7706 22.24 23.7772 22.2104 23.7819C22.2502 23.7756 22.2104 23.7819 22.1998 23.7819C22.1843 23.7825 22.169 23.7838 22.1536 23.784C22.1256 23.7845 22.0978 23.7826 22.0699 23.7814C22.06 23.7814 22.0191 23.7763 22.058 23.7814C22.0457 23.7798 22.0335 23.7776 22.0213 23.7753C21.9883 23.7693 21.9556 23.7616 21.9234 23.7521C21.8978 23.7446 21.8727 23.7358 21.8477 23.7266C21.8861 23.7407 21.8214 23.7139 21.8107 23.7081C21.7878 23.6956 21.7658 23.6818 21.7446 23.6667C21.6962 23.633 21.7607 23.6806 21.7341 23.6585C21.7203 23.6472 21.7068 23.6356 21.6937 23.6237C21.6745 23.6062 21.6561 23.5881 21.6384 23.5693C21.6308 23.5611 21.6234 23.5529 21.616 23.5444C21.616 23.5444 21.5819 23.5027 21.6005 23.5266C21.6191 23.5505 21.5876 23.5083 21.5874 23.508C21.5815 23.4993 21.5756 23.4905 21.57 23.4817C21.5548 23.4578 21.5409 23.4332 21.5283 23.4079C21.5227 23.3967 21.5174 23.3853 21.5123 23.3738C21.5149 23.3799 21.5266 23.4137 21.5154 23.3801C21.5079 23.3569 21.4995 23.3342 21.4931 23.3104C21.4882 23.2918 21.4842 23.2731 21.4803 23.2543C21.4796 23.2507 21.4728 23.2045 21.4772 23.2386C21.4815 23.2716 21.4762 23.2224 21.4758 23.2159C21.4739 23.1717 21.4748 23.1275 21.4785 23.0834C21.4759 23.1281 21.4774 23.0902 21.4818 23.068C21.487 23.0409 21.4937 23.0142 21.5017 22.9878C21.5072 22.9703 21.514 22.9534 21.5198 22.936C21.5338 22.8936 21.5035 22.9626 21.5186 22.9392C21.5246 22.9299 21.5286 22.9182 21.5337 22.9083C21.5431 22.89 21.5532 22.872 21.5641 22.8544C21.5712 22.843 21.6188 22.7783 21.584 22.8214C21.6099 22.7888 21.6382 22.7582 21.6686 22.7298C21.6761 22.723 21.7239 22.6838 21.7018 22.7006C21.6758 22.7205 21.7133 22.6929 21.7157 22.6913C21.7275 22.6837 21.7392 22.6757 21.7513 22.6684C21.7712 22.6561 21.7925 22.6446 21.8138 22.6343C21.8163 22.6331 21.8596 22.6144 21.8296 22.6266C21.8012 22.6383 21.8477 22.6203 21.8535 22.6184C21.8792 22.6095 21.9054 22.602 21.9319 22.5959C21.9494 22.5919 22.0186 22.583 21.9693 22.5876C22.0282 22.5828 22.0874 22.5822 22.1464 22.5858C22.155 22.5858 22.1854 22.5905 22.1441 22.5847C22.1614 22.5871 22.1786 22.5902 22.1958 22.5935C22.2315 22.6006 22.2667 22.61 22.3016 22.6204C22.3268 22.6274 22.3532 22.6293 22.3791 22.6261C22.4051 22.6228 22.4301 22.6145 22.4529 22.6016C22.4756 22.5887 22.4956 22.5714 22.5117 22.5508C22.5277 22.5301 22.5396 22.5065 22.5465 22.4813C22.5535 22.4561 22.5554 22.4298 22.5522 22.4038C22.549 22.3779 22.5406 22.3528 22.5277 22.3301C22.5148 22.3073 22.4975 22.2873 22.4769 22.2713C22.4563 22.2552 22.4327 22.2434 22.4075 22.2364L22.4084 22.237Z" fill="#211715"/>
<path d="M23.0182 20.8403C23.0106 20.7871 23.0152 20.8171 23.0182 20.8481C23.0204 20.8742 23.0225 20.9002 23.0244 20.9263C23.0296 21.0009 23.0336 21.0757 23.0371 21.1502C23.0446 21.3136 23.0501 21.4777 23.0462 21.6413C23.0455 21.6733 23.0445 21.7053 23.0423 21.7373C23.0411 21.7559 23.0399 21.8269 23.0401 21.7735C23.0401 21.8262 23.0221 21.7735 23.0475 21.7692C23.0195 21.7744 22.9659 21.8317 22.9367 21.8552C22.7365 22.0169 22.542 22.1853 22.3413 22.3464C22.3159 22.371 22.2978 22.402 22.2887 22.4362C22.2797 22.4703 22.2802 22.5063 22.2902 22.5402C22.4145 22.9174 22.5552 23.2894 22.6601 23.6728C22.6686 23.702 22.6835 23.729 22.7039 23.7516C22.7242 23.7742 22.7493 23.7919 22.7775 23.8034C22.8056 23.8149 22.836 23.8198 22.8664 23.8179C22.8967 23.816 22.9262 23.8073 22.9527 23.7923C23.7784 23.3304 24.9322 22.8598 24.9078 21.7393C24.8863 21.2464 24.8089 20.7575 24.677 20.2821C24.5735 19.829 24.3813 19.4008 24.1114 19.0223C23.7848 18.5942 23.3954 18.1668 22.9132 17.9125C22.6866 17.7931 22.4851 18.1367 22.7122 18.2564C23.0969 18.4594 23.4108 18.7862 23.6842 19.1192C23.9399 19.4374 24.1288 19.8039 24.2396 20.1969C24.3575 20.6066 24.44 21.0257 24.4864 21.4495C24.5149 21.6866 24.5374 21.9422 24.4444 22.1686C24.3635 22.3442 24.2447 22.4996 24.0965 22.6238C23.7051 22.9787 23.2081 23.1931 22.7517 23.4484L23.0442 23.5679C22.9392 23.1844 22.7985 22.8124 22.6742 22.4351L22.6229 22.6289C22.8375 22.4566 23.0449 22.2755 23.2601 22.1042C23.4095 21.9856 23.4359 21.8698 23.4431 21.6871C23.4581 21.3692 23.4445 21.0507 23.4027 20.7352C23.3885 20.6844 23.3547 20.6413 23.3089 20.6152C23.263 20.5891 23.2087 20.5822 23.1578 20.5958C23.1075 20.611 23.0651 20.6449 23.0391 20.6905C23.0132 20.7361 23.0058 20.79 23.0184 20.8409L23.0182 20.8403Z" fill="#211715"/>
<path d="M19.6627 16.151C19.6352 16.7334 19.8305 17.3043 20.2088 17.7479C20.5519 18.1414 21.0367 18.3834 21.5574 18.4212C22.0781 18.4589 22.5927 18.2894 22.989 17.9495C23.2627 17.9638 23.5325 17.8794 23.7492 17.7115C23.8463 17.6359 23.9226 17.5368 23.9709 17.4236C24.0191 17.3104 24.0378 17.1868 24.0251 17.0643C24.0095 16.9795 23.9734 16.8998 23.9198 16.8322C23.8663 16.7646 23.797 16.7111 23.7179 16.6765C23.8674 16.2879 23.8843 15.8608 23.766 15.4615C23.6478 15.0623 23.401 14.7133 23.064 14.4688C22.1779 13.8394 20.9259 13.926 20.198 14.7541C19.8645 15.1445 19.6755 15.6378 19.6627 16.151Z" fill="white"/>
<path d="M19.9512 15.1025C19.8218 15.3343 19.7341 15.5871 19.6923 15.8492C20.2187 15.8959 20.7491 15.832 21.2493 15.6616C21.2633 15.6569 21.2782 15.6551 21.2929 15.6564C21.3077 15.6576 21.322 15.6619 21.335 15.6689C21.3979 15.7043 21.322 15.8415 21.2865 15.9042C21.5096 15.967 22.0557 15.8644 22.297 15.7318C22.4313 16.0579 22.5682 16.2279 22.8312 16.3511L23.5376 16.6327C23.6 16.6362 23.6612 16.6512 23.7181 16.677C23.8674 16.2883 23.8841 15.8611 23.7657 15.4619C23.6474 15.0626 23.4006 14.7136 23.0636 14.469C22.1775 13.8396 20.9255 13.9262 20.1976 14.7543C20.1035 14.8615 20.021 14.9782 19.9512 15.1025Z" fill="white"/>
<path d="M23.9407 16.6452C24.0706 16.2379 24.0734 15.8008 23.9488 15.3919C23.8242 14.9829 23.578 14.6217 23.2431 14.3561C22.9128 14.1033 22.5227 13.9402 22.1108 13.8825C21.6989 13.8248 21.279 13.8744 20.892 14.0267C20.0755 14.3617 19.5635 15.124 19.4747 15.991C19.4272 16.4213 19.4944 16.8564 19.6695 17.2523C19.8446 17.6482 20.1213 17.9907 20.4716 18.245C21.2866 18.8141 22.4652 18.714 23.1861 18.0384C23.3735 17.8628 23.0915 17.5816 22.9045 17.7568C22.6374 17.9965 22.3052 18.1514 21.95 18.2022C21.5948 18.2529 21.2325 18.1971 20.909 18.0418C20.2387 17.707 19.8644 16.9878 19.8604 16.2535C19.8565 15.5477 20.1923 14.8608 20.8145 14.5041C21.1141 14.3392 21.4509 14.2537 21.7929 14.256C22.1349 14.2582 22.4706 14.3481 22.768 14.5169C23.1131 14.7108 23.3803 15.0182 23.5241 15.387C23.6679 15.7558 23.6793 16.163 23.5565 16.5392C23.4777 16.7838 23.8622 16.8885 23.9407 16.6452Z" fill="#211715"/>
<path d="M23.5376 16.8319C23.5845 16.8351 23.5158 16.8232 23.5575 16.834C23.5753 16.8387 23.5932 16.8424 23.6107 16.8481C23.6207 16.8514 23.6615 16.8708 23.6313 16.8554C23.6477 16.8637 23.6641 16.8723 23.6797 16.8819C23.6869 16.8864 23.7259 16.9147 23.6996 16.8936C23.7139 16.9052 23.7276 16.9176 23.7406 16.9307C23.7538 16.9437 23.7661 16.9574 23.7777 16.9718C23.7544 16.942 23.7848 16.9852 23.7889 16.9918C23.7985 17.0076 23.8072 17.0239 23.8149 17.0407C23.799 17.0053 23.8183 17.0546 23.8206 17.0627C23.8259 17.0806 23.83 17.0989 23.8328 17.1174C23.8272 17.0781 23.8322 17.1332 23.8328 17.1415C23.8328 17.1614 23.8319 17.1803 23.8308 17.1998C23.8285 17.2443 23.8376 17.1846 23.8267 17.2243C23.8178 17.2568 23.8005 17.3195 23.7947 17.333C23.7673 17.3921 23.7317 17.447 23.6888 17.496C23.6401 17.5508 23.5815 17.596 23.5161 17.6292C23.4495 17.6688 23.3775 17.6985 23.3023 17.7173C23.2605 17.7291 23.2181 17.7385 23.1753 17.7455C23.1612 17.7477 23.1612 17.7477 23.1753 17.7455C23.1648 17.7467 23.1542 17.7478 23.1436 17.7486C23.1192 17.7507 23.095 17.7517 23.0705 17.7523C23.0176 17.7523 22.967 17.7733 22.9297 17.8107C22.8923 17.848 22.8713 17.8987 22.8713 17.9515C22.8713 18.0043 22.8923 18.0549 22.9297 18.0923C22.967 18.1296 23.0176 18.1506 23.0705 18.1506C23.5455 18.139 24.0255 17.8818 24.1869 17.4158C24.2256 17.3096 24.2395 17.196 24.2276 17.0836C24.2157 16.9712 24.1783 16.863 24.1183 16.7672C24.0538 16.6706 23.9678 16.5902 23.8671 16.5324C23.7663 16.4745 23.6536 16.4407 23.5376 16.4336C23.4849 16.4339 23.4344 16.4549 23.3971 16.4922C23.3598 16.5295 23.3388 16.58 23.3385 16.6327C23.3397 16.6851 23.3611 16.7351 23.3982 16.7722C23.4353 16.8092 23.4852 16.8306 23.5376 16.8319Z" fill="#211715"/>
<path d="M20.9188 16.8754C20.9163 16.9219 20.9035 16.9674 20.8813 17.0084C20.8591 17.0494 20.828 17.085 20.7904 17.1125C20.737 17.1469 20.6723 17.1591 20.6101 17.1467C20.5676 17.1391 20.5275 17.1217 20.493 17.0957C20.4586 17.0698 20.4307 17.0361 20.4117 16.9973C20.3841 16.9352 20.377 16.8659 20.3913 16.7995C20.4056 16.733 20.4406 16.6728 20.4913 16.6275C20.5407 16.5864 20.6038 16.5656 20.668 16.5691C20.7322 16.5726 20.7926 16.6003 20.8372 16.6466C20.8669 16.6763 20.8897 16.7122 20.9038 16.7518C20.9179 16.7913 20.9231 16.8336 20.9188 16.8754Z" fill="#211715"/>
<path d="M22.1295 17.1227C22.1269 17.1693 22.114 17.2147 22.0918 17.2557C22.0696 17.2967 22.0386 17.3323 22.001 17.3599C21.9476 17.3941 21.8829 17.4063 21.8206 17.3939C21.7781 17.3864 21.738 17.3689 21.7036 17.3429C21.6691 17.317 21.6413 17.2833 21.6223 17.2446C21.5947 17.1824 21.5876 17.1131 21.6019 17.0467C21.6162 16.9803 21.6513 16.9201 21.7019 16.8748C21.7513 16.8337 21.8144 16.8128 21.8786 16.8163C21.9427 16.8198 22.0031 16.8475 22.0477 16.8938C22.0774 16.9235 22.1002 16.9595 22.1143 16.999C22.1285 17.0386 22.1336 17.0809 22.1295 17.1227Z" fill="#211715"/>
<path d="M22.1054 15.7848C22.1693 15.9548 22.2596 16.1136 22.3728 16.2556C22.4719 16.3693 22.5941 16.4605 22.7312 16.5232C22.7781 16.5487 22.8328 16.5558 22.8847 16.5431C22.9224 16.5327 22.9563 16.5114 22.982 16.4818C23.0077 16.4523 23.0242 16.4158 23.0292 16.377C23.0343 16.3381 23.0278 16.2986 23.0106 16.2635C22.9933 16.2283 22.9661 16.199 22.9323 16.1792C22.8648 16.148 22.8009 16.1097 22.7416 16.0649L22.7814 16.0961C22.7239 16.051 22.6723 15.9989 22.6278 15.9409L22.6589 15.9808C22.5865 15.8813 22.5268 15.7733 22.4809 15.6593L22.5008 15.7069C22.4969 15.6974 22.4929 15.6879 22.489 15.6785C22.4735 15.6293 22.4411 15.5872 22.3975 15.5595C22.3749 15.5463 22.35 15.5377 22.324 15.5341C22.2981 15.5305 22.2718 15.5321 22.2464 15.5387C22.2211 15.5454 22.1974 15.5569 22.1765 15.5727C22.1557 15.5885 22.1382 15.6083 22.125 15.6309C22.1112 15.6537 22.1023 15.6791 22.0989 15.7055C22.0955 15.7319 22.0976 15.7588 22.1051 15.7843L22.1054 15.7848Z" fill="#211715"/>
<path d="M22.1969 15.56C21.9696 15.6795 21.5809 15.7726 21.3398 15.7123L21.4588 16.0049C21.5355 15.8679 21.6191 15.6774 21.491 15.5419C21.3431 15.3854 21.1326 15.4956 20.9633 15.5419C20.5701 15.6445 20.1629 15.6827 19.7574 15.655C19.5013 15.6409 19.5021 16.0391 19.7574 16.0533C20.0271 16.0693 20.2978 16.06 20.5658 16.0255C20.692 16.0087 20.8174 15.9872 20.9414 15.9583C21.0058 15.9432 21.0696 15.9264 21.1329 15.908C21.1684 15.8976 21.2037 15.8867 21.2388 15.8752C21.253 15.8707 21.2671 15.8661 21.2812 15.8612C21.309 15.8516 21.3094 15.8516 21.2822 15.8612L21.1943 15.81L21.2092 15.8235L21.158 15.7355C21.1381 15.6879 21.1753 15.6921 21.1527 15.7321C21.1394 15.7556 21.1279 15.7802 21.1147 15.8038C21.0997 15.8303 21.0909 15.8598 21.089 15.8901C21.087 15.9204 21.0919 15.9508 21.1034 15.9789C21.1148 16.007 21.1325 16.0322 21.1551 16.0526C21.1776 16.0729 21.2045 16.0879 21.2337 16.0964C21.4281 16.1333 21.628 16.1299 21.8211 16.0864C22.0218 16.0563 22.2165 15.9947 22.398 15.9039C22.6248 15.7844 22.4237 15.4404 22.1969 15.56Z" fill="#211715"/>
<path d="M23.2255 21.5404C23.6878 21.6149 24.1541 21.6617 24.6219 21.6807C24.6747 21.6807 24.7254 21.6597 24.7627 21.6224C24.8 21.5851 24.821 21.5344 24.821 21.4816C24.821 21.4288 24.8 21.3781 24.7627 21.3408C24.7254 21.3034 24.6747 21.2825 24.6219 21.2825C24.1896 21.266 23.7586 21.224 23.3312 21.1568C23.2803 21.1444 23.2266 21.152 23.1811 21.1779C23.1356 21.2038 23.1016 21.2461 23.0863 21.2962C23.0727 21.3471 23.0797 21.4014 23.1058 21.4472C23.1319 21.4931 23.1749 21.5268 23.2257 21.5411L23.2255 21.5404Z" fill="#211715"/>
<path d="M18.4168 19.6308L19.5698 20.3802C19.6155 20.4065 19.6697 20.4137 19.7207 20.4004C19.7716 20.387 19.8153 20.3541 19.8422 20.3088C19.8678 20.2629 19.8746 20.209 19.8613 20.1582C19.848 20.1074 19.8156 20.0638 19.7708 20.0363L18.6181 19.2869C18.5724 19.2606 18.5182 19.2534 18.4672 19.2667C18.4162 19.2801 18.3725 19.3129 18.3456 19.3582C18.3201 19.4041 18.3133 19.4581 18.3266 19.5089C18.3399 19.5596 18.3723 19.6033 18.417 19.6308H18.4168Z" fill="#211715"/>
<path d="M29.3385 11.9682C29.3732 11.9682 29.4068 11.9705 29.4404 11.9731C29.5842 11.745 29.786 11.5592 30.0253 11.4347C30.2645 11.3103 30.5325 11.2516 30.8019 11.2648C31.0712 11.2779 31.3322 11.3625 31.5582 11.5097C31.7841 11.6569 31.9669 11.8615 32.0878 12.1026C32.1362 12.0982 32.1855 12.0954 32.2359 12.0954C32.4308 12.0915 32.6244 12.1269 32.8053 12.1995C32.9862 12.272 33.1507 12.3802 33.2889 12.5176C33.4271 12.655 33.5363 12.8188 33.6099 12.9993C33.6835 13.1798 33.72 13.3732 33.7172 13.5681C33.7172 14.4563 33.0988 15.0679 32.2358 15.0679C31.879 15.0778 31.5305 14.9599 31.253 14.7355C31.0388 14.9126 30.768 15.0069 30.4901 15.0011C29.955 15.0011 29.5636 14.7175 29.4103 14.2753C29.3864 14.2766 29.3629 14.2786 29.3385 14.2786C28.6416 14.2786 28.187 13.7986 28.187 13.1127C28.1847 12.9612 28.2131 12.8108 28.2703 12.6704C28.3274 12.5301 28.4123 12.4027 28.5198 12.2959C28.6272 12.1891 28.7551 12.105 28.8958 12.0487C29.0365 11.9924 29.187 11.965 29.3385 11.9682Z" fill="white"/>
<path d="M37.3923 18.0016C37.4193 18.0016 37.4455 18.0034 37.472 18.0054C37.584 17.8278 37.7412 17.6831 37.9274 17.5862C38.1137 17.4893 38.3224 17.4437 38.5321 17.4539C38.7419 17.4642 38.9451 17.53 39.121 17.6446C39.297 17.7593 39.4393 17.9186 39.5334 18.1063C39.5712 18.1029 39.6096 18.1007 39.6488 18.1007C39.8005 18.0977 39.9513 18.1253 40.0922 18.1817C40.2331 18.2382 40.3612 18.3224 40.4688 18.4294C40.5765 18.5364 40.6615 18.664 40.7188 18.8045C40.7762 18.945 40.8046 19.0957 40.8026 19.2474C40.8026 19.9392 40.3209 20.4155 39.6487 20.4155C39.3709 20.4232 39.0994 20.3314 38.8833 20.1567C38.7165 20.2946 38.5056 20.3681 38.2891 20.3636C37.8724 20.3636 37.5676 20.1425 37.4482 19.7982C37.4296 19.7992 37.4112 19.8007 37.3922 19.8007C36.8497 19.8007 36.4954 19.4269 36.4954 18.8927C36.4937 18.7747 36.5158 18.6576 36.5604 18.5483C36.6049 18.4391 36.671 18.3399 36.7547 18.2567C36.8384 18.1736 36.938 18.1081 37.0476 18.0643C37.1571 18.0204 37.2744 17.9991 37.3923 18.0016Z" fill="white"/>
<path d="M10.9483 9.28755C11.1927 9.23008 11.4462 9.22237 11.6936 9.26488C11.941 9.30738 12.1774 9.39922 12.3886 9.53494C12.5998 9.67066 12.7816 9.84748 12.9231 10.0549C13.0645 10.2623 13.1628 10.496 13.2121 10.7422C13.4521 11.8611 12.8382 12.7987 11.751 13.0322C10.622 13.2739 9.71797 12.6542 9.47961 11.5424C9.42338 11.2976 9.41703 11.0441 9.46094 10.7968C9.50485 10.5495 9.59813 10.3136 9.7352 10.1031C9.87227 9.8927 10.0503 9.71202 10.2588 9.5719C10.4672 9.43177 10.7017 9.33506 10.9483 9.28755Z" fill="#FFDA71"/>
<path d="M11.0013 9.47961C11.3573 9.40118 11.7291 9.43998 12.0613 9.59021C12.3934 9.74043 12.6681 9.99404 12.8443 10.3132C13.1754 10.9195 13.1493 11.7529 12.6835 12.284C12.4413 12.5454 12.1297 12.7326 11.7852 12.8239C11.4406 12.9151 11.0772 12.9067 10.7373 12.7994C10.0793 12.5804 9.67197 11.901 9.63712 11.2283C9.61393 10.8324 9.7296 10.4408 9.9642 10.1211C10.2214 9.78943 10.5896 9.56166 11.0013 9.47961C11.2513 9.42415 11.1454 9.03973 10.8954 9.09558C10.461 9.18753 10.0671 9.41521 9.77057 9.74572C9.47405 10.0762 9.29028 10.4925 9.24583 10.9343C9.16319 11.7685 9.5974 12.6907 10.3614 13.0712C11.1363 13.4572 12.142 13.2988 12.7917 12.7376C13.4496 12.1694 13.6215 11.1962 13.3185 10.3991C13.1489 9.94168 12.8259 9.55724 12.4046 9.31134C11.9448 9.05742 11.4079 8.98067 10.8954 9.09558C10.6445 9.14706 10.7507 9.53109 11.0013 9.47961Z" fill="#211715"/>
<path d="M12.8333 15.5046C12.7466 15.1648 12.6599 14.8249 12.5732 14.4851C12.5592 14.4342 12.5255 14.3909 12.4796 14.3648C12.4336 14.3387 12.3792 14.332 12.3283 14.346C12.2774 14.36 12.2341 14.3937 12.208 14.4397C12.1819 14.4856 12.1752 14.54 12.1892 14.5909C12.2758 14.9308 12.3625 15.2707 12.4493 15.6106C12.4633 15.6615 12.497 15.7048 12.543 15.7308C12.5889 15.7569 12.6433 15.7637 12.6942 15.7496C12.7452 15.7356 12.7884 15.7019 12.8145 15.6559C12.8406 15.61 12.8473 15.5556 12.8333 15.5046Z" fill="#211715"/>
<path d="M10.2388 14.6921C10.1574 15.5581 10.0767 16.4243 9.99675 17.2908C9.99714 17.3434 10.0182 17.3939 10.0555 17.4311C10.0928 17.4684 10.1432 17.4895 10.1959 17.4899C10.2484 17.4888 10.2984 17.4675 10.3355 17.4304C10.3726 17.3932 10.3939 17.3432 10.395 17.2908C10.4757 16.4246 10.5563 15.5584 10.6371 14.6921C10.6367 14.6394 10.6156 14.589 10.5783 14.5517C10.541 14.5145 10.4906 14.4933 10.4379 14.493C10.3855 14.494 10.3354 14.5154 10.2983 14.5525C10.2612 14.5896 10.2399 14.6396 10.2388 14.6921Z" fill="#211715"/>
<path d="M16.0557 10.1004L14.942 10.307C14.8912 10.3212 14.848 10.3549 14.8219 10.4008C14.7958 10.4466 14.7888 10.501 14.8026 10.5519C14.8177 10.6022 14.8516 10.6447 14.8972 10.6706C14.9428 10.6966 14.9966 10.704 15.0475 10.6913L16.1613 10.4847C16.2121 10.4705 16.2553 10.4368 16.2814 10.3909C16.3075 10.345 16.3144 10.2907 16.3007 10.2397C16.2855 10.1895 16.2517 10.147 16.2061 10.121C16.1605 10.0951 16.1067 10.0877 16.0557 10.1003V10.1004Z" fill="#211715"/>
<path d="M17.3138 12.8902C16.5239 12.6461 15.734 12.4017 14.9441 12.157C14.6987 12.0812 14.5937 12.4657 14.8382 12.5411C15.6281 12.785 16.418 13.0294 17.2079 13.2743C17.4533 13.3501 17.5583 12.9656 17.3138 12.8902Z" fill="#211715"/>
<path d="M15.3293 15.023C14.903 14.5812 14.477 14.1394 14.0511 13.6974C14.0326 13.6789 14.0106 13.6642 13.9865 13.6542C13.9623 13.6442 13.9364 13.639 13.9103 13.639C13.8841 13.639 13.8582 13.6441 13.834 13.6541C13.8098 13.6641 13.7879 13.6788 13.7694 13.6973C13.7509 13.7158 13.7362 13.7377 13.7261 13.7619C13.7161 13.786 13.711 13.8119 13.7109 13.8381C13.7109 13.8643 13.7161 13.8902 13.7261 13.9143C13.7361 13.9385 13.7507 13.9605 13.7692 13.979C14.1954 14.421 14.6215 14.8629 15.0476 15.3047C15.085 15.3421 15.1356 15.3631 15.1885 15.3631C15.2413 15.3631 15.292 15.3421 15.3293 15.3047C15.3667 15.2674 15.3876 15.2167 15.3876 15.1639C15.3876 15.1111 15.3667 15.0604 15.3293 15.023Z" fill="#211715"/>
<path d="M29.3385 12.1673C29.3727 12.168 29.4063 12.1698 29.4404 12.1723C29.4752 12.1724 29.5094 12.1633 29.5396 12.146C29.5698 12.1287 29.5949 12.1037 29.6124 12.0736C29.7417 11.8686 29.9252 11.7034 30.1426 11.5962C30.36 11.489 30.6028 11.444 30.8442 11.4662C31.0721 11.483 31.2914 11.5601 31.4798 11.6895C31.6681 11.819 31.8186 11.9962 31.9158 12.203C31.9329 12.2334 31.9579 12.2587 31.9882 12.276C32.0185 12.2934 32.0529 12.3022 32.0878 12.3016C32.4307 12.2635 32.7751 12.3591 33.0494 12.5685C33.302 12.7747 33.4662 13.0696 33.5085 13.3928C33.5928 14.0433 33.227 14.6733 32.5772 14.8306C32.375 14.8826 32.1636 14.8884 31.9588 14.8476C31.754 14.8068 31.5611 14.7204 31.3942 14.5949C31.3559 14.5593 31.3056 14.5395 31.2534 14.5395C31.2012 14.5395 31.1509 14.5593 31.1126 14.5949C30.6336 14.988 29.8183 14.8176 29.6027 14.2226C29.5904 14.181 29.5651 14.1444 29.5306 14.1181C29.4961 14.0919 29.4541 14.0772 29.4107 14.0764C29.1536 14.101 28.8971 14.0243 28.6956 13.8627C28.603 13.7779 28.5282 13.6756 28.4756 13.5616C28.4229 13.4477 28.3935 13.3244 28.389 13.1989C28.3776 13.0675 28.3938 12.9351 28.4364 12.8102C28.479 12.6854 28.5472 12.5708 28.6366 12.4737C28.7259 12.3767 28.8346 12.2994 28.9555 12.2466C29.0764 12.1939 29.207 12.1669 29.3389 12.1675C29.595 12.164 29.5957 11.7657 29.3389 11.7692C29.0518 11.7678 28.7717 11.8581 28.5395 12.027C28.3073 12.196 28.1351 12.4347 28.0481 12.7083C27.8815 13.246 28.0551 13.8832 28.511 14.2217C28.7725 14.4078 29.0906 14.4971 29.4107 14.4744L29.2187 14.3283C29.2844 14.5217 29.3955 14.6965 29.5428 14.838C29.6901 14.9796 29.8691 15.0838 30.065 15.1418C30.2915 15.2089 30.5309 15.2197 30.7625 15.1734C30.9941 15.1272 31.211 15.0252 31.3944 14.8763H31.1128C31.8038 15.4421 32.9485 15.4029 33.5314 14.6922C33.794 14.362 33.9298 13.9487 33.9142 13.5271C33.8987 13.1055 33.7327 12.7033 33.4464 12.3934C33.2699 12.2171 33.0567 12.0819 32.822 11.9973C32.5872 11.9126 32.3368 11.8807 32.0884 11.9037L32.2603 12.0024C32.1278 11.7356 31.927 11.5086 31.6784 11.3445C31.4298 11.1804 31.1422 11.0849 30.8448 11.0679C30.5337 11.0456 30.2225 11.1089 29.9448 11.2507C29.6671 11.3925 29.4334 11.6076 29.269 11.8726L29.441 11.774C29.4069 11.7715 29.3733 11.7697 29.3391 11.769C29.0825 11.7639 29.0825 12.1622 29.3385 12.1673Z" fill="#211715"/>
<path d="M37.3923 18.2007C37.4188 18.2007 37.4452 18.2022 37.472 18.2046C37.5067 18.2046 37.5408 18.1956 37.5709 18.1783C37.601 18.1611 37.626 18.1362 37.6435 18.1063C37.7392 17.955 37.8745 17.8329 38.0348 17.7532C38.1951 17.6735 38.3742 17.6393 38.5526 17.6543C38.7246 17.6655 38.8904 17.7228 39.0327 17.8201C39.175 17.9174 39.2886 18.0512 39.3614 18.2075C39.3786 18.2379 39.4036 18.2631 39.4338 18.2804C39.4641 18.2978 39.4985 18.3066 39.5334 18.306C39.6958 18.2867 39.8605 18.3084 40.0124 18.3691C40.1643 18.4298 40.2986 18.5276 40.403 18.6535C40.4967 18.7791 40.5603 18.9247 40.5886 19.0789C40.6169 19.2331 40.6093 19.3917 40.5663 19.5424C40.5315 19.6802 40.464 19.8075 40.3696 19.9137C40.2751 20.0199 40.1565 20.1017 40.0237 20.1524C39.859 20.215 39.6812 20.2354 39.5066 20.2117C39.332 20.188 39.1661 20.1208 39.0241 20.0165C38.9858 19.9809 38.9355 19.9612 38.8833 19.9612C38.831 19.9612 38.7807 19.9809 38.7424 20.0165C38.394 20.2999 37.7984 20.1768 37.6401 19.746C37.6278 19.7044 37.6025 19.6678 37.568 19.6415C37.5335 19.6153 37.4915 19.6006 37.4482 19.5998C37.0489 19.623 36.7213 19.3729 36.6966 18.9626C36.6874 18.8659 36.6987 18.7683 36.7295 18.6762C36.7604 18.5841 36.8102 18.4995 36.8757 18.4278C36.9413 18.3561 37.0211 18.299 37.1101 18.26C37.199 18.221 37.2952 18.2011 37.3923 18.2016C37.6483 18.1971 37.6491 17.7988 37.3923 17.8033C37.2431 17.8034 37.0954 17.8339 36.9584 17.893C36.8214 17.9521 36.6979 18.0386 36.5955 18.1471C36.493 18.2557 36.4138 18.384 36.3627 18.5242C36.3116 18.6644 36.2897 18.8136 36.2983 18.9626C36.303 19.107 36.3368 19.249 36.3977 19.3801C36.4586 19.5111 36.5453 19.6285 36.6527 19.7252C36.7601 19.8219 36.8859 19.8959 37.0226 19.9428C37.1593 19.9897 37.304 20.0085 37.4482 19.9981L37.2561 19.8519C37.3101 20.0111 37.4017 20.1549 37.5232 20.271C37.6447 20.3871 37.7924 20.4722 37.9539 20.519C38.1368 20.5712 38.3297 20.5784 38.516 20.54C38.7024 20.5016 38.8767 20.4187 39.0241 20.2984H38.7424C39.2964 20.7487 40.2016 20.7292 40.6781 20.1673C40.8955 19.9021 41.0097 19.5672 40.9994 19.2244C40.9891 18.8816 40.8552 18.5541 40.6222 18.3024C40.4807 18.1609 40.3098 18.0522 40.1217 17.9839C39.9336 17.9156 39.7327 17.8894 39.5334 17.9072L39.7053 18.0058C39.5971 17.7897 39.4333 17.6063 39.2307 17.4744C39.0281 17.3425 38.794 17.2669 38.5526 17.2554C38.3046 17.2405 38.0572 17.2931 37.8366 17.4074C37.616 17.5217 37.4305 17.6936 37.2996 17.9048L37.4716 17.8061C37.4452 17.8037 37.4188 17.8025 37.3919 17.8022C37.1359 17.7952 37.1361 18.1934 37.3923 18.2007Z" fill="#211715"/>
<path d="M31.0284 21.2099C31.0284 21.5285 30.8062 21.8435 30.3894 22.0843C29.922 22.3452 29.396 22.4831 28.8608 22.485C28.3255 22.4869 27.7986 22.3527 27.3294 22.0951C26.8739 21.8322 26.6508 21.5116 26.6651 21.1907C26.669 20.8828 26.8921 20.5773 27.3292 20.3244L30.3894 20.3359C30.8064 20.5767 31.0285 20.8906 31.0285 21.2096" fill="white"/>
<path d="M30.1392 20.1415C29.8505 19.7844 29.4019 19.5722 28.8467 19.5722C28.0966 19.5722 27.5119 19.9862 27.2898 20.6376C27.3193 20.691 27.3594 20.7379 27.4075 20.7756C27.5139 20.8484 27.6416 20.8838 27.7704 20.8762C27.8141 20.8773 27.8577 20.8806 27.9011 20.8862C28.1879 21.0702 28.5215 21.1678 28.8622 21.1675C29.2029 21.1672 29.5363 21.069 29.8227 20.8845C29.8559 20.8795 29.8894 20.8767 29.923 20.876C30.0518 20.8838 30.1795 20.8483 30.2859 20.7754C30.3351 20.7368 30.3758 20.6884 30.4054 20.6334C30.347 20.4548 30.2568 20.2882 30.1392 20.1415Z" fill="#FFDA71"/>
<path d="M30.6999 21.2469C30.6942 20.519 30.3383 19.8269 29.6491 19.532C28.943 19.2299 28.0366 19.3528 27.496 19.919C27.1691 20.2777 26.9897 20.7465 26.9936 21.2318C26.989 21.4882 27.3872 21.4883 27.3918 21.2318C27.4039 20.5601 27.7901 19.9772 28.4596 19.8154C29.0138 19.6813 29.6686 19.8344 30.0179 20.3083C30.2093 20.5833 30.3087 20.9119 30.3016 21.2469C30.3036 21.5031 30.7019 21.5037 30.6999 21.2469Z" fill="#211715"/>
<path d="M28.2919 20.0205C28.1438 19.7101 27.9679 19.4138 27.7664 19.1351C27.7389 19.0904 27.6952 19.0581 27.6445 19.0447C27.5937 19.0314 27.5398 19.0382 27.4939 19.0636C27.4487 19.0907 27.416 19.1344 27.4026 19.1853C27.3893 19.2363 27.3964 19.2904 27.4225 19.3361C27.6241 19.6148 27.8 19.9111 27.948 20.2215C27.9748 20.2669 28.0185 20.2999 28.0696 20.3133C28.1206 20.3266 28.1748 20.3194 28.2205 20.293C28.2651 20.2654 28.2973 20.2217 28.3106 20.171C28.3239 20.1203 28.3172 20.0664 28.2919 20.0205Z" fill="#211715"/>
<path d="M27.881 21.1088C28.1756 21.2737 28.507 21.3616 28.8446 21.3645C29.1823 21.3674 29.5151 21.2852 29.8126 21.1254C30.0381 21.0033 29.8372 20.6593 29.6115 20.7815C29.3756 20.907 29.1119 20.9713 28.8447 20.9684C28.5775 20.9655 28.3153 20.8955 28.0821 20.7649C27.8588 20.6384 27.6579 20.9824 27.8811 21.1088H27.881Z" fill="#211715"/>
<path d="M30.2888 20.5076C30.3375 20.536 30.3853 20.5659 30.4315 20.598C30.4435 20.6064 30.4555 20.615 30.4674 20.6237C30.4723 20.6273 30.5053 20.6529 30.4818 20.6343C30.4582 20.6157 30.4902 20.6412 30.495 20.6451C30.5057 20.6539 30.5164 20.6629 30.527 20.672C30.5624 20.7025 30.5963 20.7348 30.6285 20.7688C30.6446 20.7857 30.6601 20.8031 30.6752 20.8211C30.6819 20.8289 30.6883 20.8371 30.6951 20.8451C30.7076 20.86 30.6673 20.8074 30.6936 20.8437C30.7179 20.877 30.74 20.9118 30.7598 20.9479C30.7698 20.9661 30.7788 20.9849 30.7877 21.0036C30.8019 21.0334 30.7855 21.0049 30.783 20.9917C30.7862 21.0022 30.79 21.0125 30.7946 21.0225C30.8078 21.0597 30.818 21.0978 30.8253 21.1366C30.8267 21.1449 30.831 21.1778 30.8266 21.1415C30.8223 21.1051 30.826 21.138 30.8266 21.1463C30.8285 21.1674 30.8293 21.1884 30.8295 21.2094C30.8295 21.2622 30.8505 21.3128 30.8879 21.3502C30.9252 21.3875 30.9759 21.4085 31.0287 21.4085C31.0815 21.4085 31.1321 21.3875 31.1695 21.3502C31.2068 21.3128 31.2278 21.2622 31.2278 21.2094C31.2242 20.7421 30.8699 20.385 30.49 20.1639C30.4444 20.1373 30.3901 20.1298 30.339 20.1432C30.2879 20.1566 30.2442 20.1898 30.2176 20.2354C30.1909 20.281 30.1834 20.3353 30.1968 20.3864C30.2102 20.4375 30.2434 20.4812 30.289 20.5078L30.2888 20.5076Z" fill="#211715"/>
<path d="M27.2286 20.1523C26.8479 20.3745 26.4695 20.7253 26.4659 21.199C26.4659 21.2518 26.4868 21.3025 26.5242 21.3398C26.5615 21.3772 26.6122 21.3982 26.665 21.3982C26.7178 21.3982 26.7685 21.3772 26.8058 21.3398C26.8431 21.3025 26.8641 21.2518 26.8641 21.199C26.8641 21.1791 26.8651 21.1592 26.8669 21.1393C26.8677 21.1307 26.8714 21.0989 26.8669 21.1357C26.8624 21.1725 26.8669 21.1408 26.8682 21.1322C26.8752 21.095 26.8852 21.0583 26.8981 21.0227C26.9016 21.0127 26.9065 21.0028 26.9094 20.9928C26.8936 21.0463 26.8995 21.0163 26.9066 21.0011C26.9138 20.9858 26.9229 20.9682 26.9317 20.9522C26.9535 20.9138 26.9776 20.8767 27.0039 20.8413C27.0181 20.8214 26.9759 20.8755 26.9987 20.8482C27.0066 20.8383 27.0144 20.8293 27.0224 20.82C27.0377 20.8023 27.0534 20.7852 27.0696 20.7685C27.1039 20.7332 27.1401 20.6997 27.1777 20.6679C27.1866 20.6604 27.1957 20.6529 27.2048 20.6455C27.2126 20.6392 27.2456 20.6068 27.2099 20.6412C27.2308 20.6235 27.253 20.6074 27.2763 20.5932C27.3261 20.5586 27.3776 20.5266 27.4299 20.4961C27.4524 20.4829 27.4722 20.4654 27.488 20.4445C27.5038 20.4237 27.5154 20.3999 27.522 20.3746C27.5286 20.3493 27.5302 20.323 27.5267 20.2971C27.5231 20.2712 27.5145 20.2462 27.5013 20.2236C27.4881 20.201 27.4706 20.1813 27.4497 20.1655C27.4289 20.1497 27.4052 20.1381 27.3799 20.1315C27.3546 20.1248 27.3282 20.1233 27.3023 20.1268C27.2764 20.1304 27.2514 20.139 27.2288 20.1522L27.2286 20.1523Z" fill="#211715"/>
<path d="M26.7207 21.717C26.6853 21.5503 26.6666 21.3805 26.6649 21.2102C26.6649 21.2137 26.6649 21.217 26.6649 21.2201C26.6649 21.5311 26.8881 21.8399 27.3295 22.0947C27.7987 22.3523 28.3256 22.4865 28.8609 22.4846C29.3961 22.4827 29.9221 22.3448 30.3895 22.0839C30.8063 21.8431 31.0285 21.5286 31.0285 21.2095C31.0285 21.2053 31.0285 21.2011 31.0285 21.1968C31.0185 22.4845 30.1591 23.3833 28.8468 23.3833C27.8374 23.3833 27.0551 22.8151 26.7758 21.9259C26.7544 21.8581 26.736 21.7885 26.7207 21.717Z" fill="#7ABEE6"/>
<path d="M30.8292 21.1747C30.8247 21.9532 30.4608 22.6996 29.7198 23.0178C28.9688 23.3403 27.9929 23.2123 27.4114 22.6204C27.052 22.2334 26.8559 21.7227 26.8638 21.1946C26.8599 20.9387 26.4617 20.9379 26.4656 21.1946C26.4627 21.7618 26.6519 22.3132 27.0023 22.7591C27.3101 23.1295 27.7291 23.391 28.1971 23.5047C29.134 23.7381 30.1894 23.4598 30.7744 22.6668C31.0785 22.2295 31.2369 21.7073 31.227 21.1747C31.2285 20.9184 30.8302 20.9181 30.8287 21.1747H30.8292Z" fill="#211715"/>
<path d="M26.4657 21.2205C26.4834 22.0319 27.4629 22.472 28.1408 22.6116C28.956 22.7862 29.8071 22.6514 30.5284 22.2332C30.8967 22.0095 31.2176 21.6617 31.2275 21.2097C31.2331 20.9533 30.8348 20.9534 30.8292 21.2097C30.823 21.4984 30.5937 21.7203 30.3648 21.8661C30.0761 22.045 29.7566 22.1686 29.4228 22.2308C28.7496 22.3678 28.0497 22.2622 27.447 21.9327C27.1857 21.7844 26.8712 21.5517 26.8639 21.2203C26.8585 20.9644 26.4601 20.9635 26.4657 21.2203V21.2205Z" fill="#211715"/>
</g>
<path d="M64.68 34V16.72H71.976C72.144 16.72 72.368 16.728 72.648 16.744C72.936 16.752 73.192 16.776 73.416 16.816C74.448 16.976 75.292 17.316 75.948 17.836C76.612 18.356 77.1 19.012 77.412 19.804C77.724 20.588 77.88 21.464 77.88 22.432C77.88 23.4 77.72 24.28 77.4 25.072C77.088 25.856 76.6 26.508 75.936 27.028C75.28 27.548 74.44 27.888 73.416 28.048C73.192 28.08 72.936 28.104 72.648 28.12C72.36 28.136 72.136 28.144 71.976 28.144H67.944V34H64.68ZM67.944 25.096H71.832C72 25.096 72.184 25.088 72.384 25.072C72.584 25.056 72.768 25.024 72.936 24.976C73.376 24.856 73.716 24.656 73.956 24.376C74.196 24.088 74.36 23.772 74.448 23.428C74.544 23.076 74.592 22.744 74.592 22.432C74.592 22.12 74.544 21.792 74.448 21.448C74.36 21.096 74.196 20.78 73.956 20.5C73.716 20.212 73.376 20.008 72.936 19.888C72.768 19.84 72.584 19.808 72.384 19.792C72.184 19.776 72 19.768 71.832 19.768H67.944V25.096ZM84.2974 34V19.768H78.8494V16.72H93.0094V19.768H87.5614V34H84.2974ZM94.9378 34V16.72H106.218V19.768H98.2018V23.464H104.778V26.512H98.2018V30.952H106.218V34H94.9378ZM121.099 34.36C120.011 34.36 118.975 34.168 117.991 33.784C117.007 33.392 116.135 32.816 115.375 32.056C114.623 31.296 114.027 30.356 113.587 29.236C113.155 28.116 112.939 26.824 112.939 25.36C112.939 23.448 113.303 21.824 114.031 20.488C114.767 19.144 115.751 18.12 116.983 17.416C118.223 16.712 119.595 16.36 121.099 16.36C123.323 16.36 125.071 16.876 126.343 17.908C127.615 18.94 128.467 20.4 128.899 22.288L125.563 22.768C125.251 21.76 124.739 20.956 124.027 20.356C123.323 19.748 122.419 19.44 121.315 19.432C120.219 19.416 119.307 19.652 118.579 20.14C117.851 20.628 117.303 21.32 116.935 22.216C116.575 23.112 116.395 24.16 116.395 25.36C116.395 26.56 116.575 27.6 116.935 28.48C117.303 29.36 117.851 30.044 118.579 30.532C119.307 31.02 120.219 31.272 121.315 31.288C122.059 31.304 122.731 31.176 123.331 30.904C123.939 30.632 124.451 30.204 124.867 29.62C125.283 29.036 125.579 28.288 125.755 27.376H123.019V24.856H129.235C129.251 24.96 129.263 25.144 129.271 25.408C129.279 25.672 129.283 25.824 129.283 25.864C129.283 27.52 128.947 28.988 128.275 30.268C127.603 31.548 126.655 32.552 125.431 33.28C124.207 34 122.763 34.36 121.099 34.36ZM136.512 34.384C135.496 34.384 134.668 34.212 134.028 33.868C133.388 33.524 132.888 33.088 132.528 32.56C132.176 32.032 131.924 31.484 131.772 30.916C131.62 30.34 131.528 29.816 131.496 29.344C131.464 28.872 131.448 28.528 131.448 28.312V21.04H134.76V27.16C134.76 27.456 134.776 27.836 134.808 28.3C134.84 28.756 134.94 29.216 135.108 29.68C135.276 30.144 135.548 30.532 135.924 30.844C136.308 31.156 136.848 31.312 137.544 31.312C137.824 31.312 138.124 31.268 138.444 31.18C138.764 31.092 139.064 30.924 139.344 30.676C139.624 30.42 139.852 30.048 140.028 29.56C140.212 29.064 140.304 28.416 140.304 27.616L142.176 28.504C142.176 29.528 141.968 30.488 141.552 31.384C141.136 32.28 140.508 33.004 139.668 33.556C138.836 34.108 137.784 34.384 136.512 34.384ZM140.712 34V29.704H140.304V21.04H143.592V34H140.712ZM146.946 34V21.04H149.826V24.208L149.514 23.8C149.682 23.352 149.906 22.944 150.186 22.576C150.466 22.208 150.81 21.904 151.218 21.664C151.53 21.472 151.87 21.324 152.238 21.22C152.606 21.108 152.986 21.04 153.378 21.016C153.77 20.984 154.162 20.992 154.554 21.04V24.088C154.194 23.976 153.774 23.94 153.294 23.98C152.822 24.012 152.394 24.12 152.01 24.304C151.626 24.48 151.302 24.716 151.038 25.012C150.774 25.3 150.574 25.644 150.438 26.044C150.302 26.436 150.234 26.88 150.234 27.376V34H146.946ZM161.66 34.384C160.644 34.384 159.816 34.212 159.176 33.868C158.536 33.524 158.036 33.088 157.676 32.56C157.324 32.032 157.072 31.484 156.92 30.916C156.768 30.34 156.676 29.816 156.644 29.344C156.612 28.872 156.596 28.528 156.596 28.312V21.04H159.908V27.16C159.908 27.456 159.924 27.836 159.956 28.3C159.988 28.756 160.088 29.216 160.256 29.68C160.424 30.144 160.696 30.532 161.072 30.844C161.456 31.156 161.996 31.312 162.692 31.312C162.972 31.312 163.272 31.268 163.592 31.18C163.912 31.092 164.212 30.924 164.492 30.676C164.772 30.42 165 30.048 165.176 29.56C165.36 29.064 165.452 28.416 165.452 27.616L167.324 28.504C167.324 29.528 167.116 30.488 166.7 31.384C166.284 32.28 165.656 33.004 164.816 33.556C163.984 34.108 162.932 34.384 161.66 34.384ZM165.86 34V29.704H165.452V21.04H168.74V34H165.86Z" fill="black"/>
<defs>
<clipPath id="clip0_36_74">
<rect width="32" height="32" fill="white" transform="translate(9 9)"/>
</clipPath>
</defs>
</svg>
