<svg width="118" height="31" viewBox="0 0 118 31" fill="none" xmlns="http://www.w3.org/2000/svg">
<g clip-path="url(#clip0_2_35)">
<path fill-rule="evenodd" clip-rule="evenodd" d="M1.1756 0.233702C0.895041 0.374957 0.515682 0.714059 0.332745 0.987356L0 1.48423L0.000586013 15.4637C0.00102576 29.1552 0.00703642 29.4531 0.292435 29.9198C0.452651 30.182 0.798589 30.5271 1.06141 30.6869C1.52946 30.9718 1.82849 30.9776 15.9043 30.9779C29.2917 30.9782 30.3037 30.9608 30.7722 30.7225C31.0487 30.5819 31.4115 30.2812 31.5784 30.0541C31.8805 29.6432 31.882 29.572 31.882 15.5518C31.882 1.54974 31.8801 1.45996 31.5797 1.05857C31.4135 0.83645 31.0954 0.519139 30.8728 0.353318C30.4713 0.054139 30.3539 0.0515034 16.0769 0.0143619C2.59864 -0.0207324 1.65332 -0.00684091 1.1756 0.233702ZM27.1316 4.45087C27.2706 4.57633 27.4657 4.87507 27.5652 5.11459C27.7867 5.64788 27.7568 5.69072 24.8631 8.99061C23.7438 10.2669 21.1932 13.2597 19.1952 15.6411C17.1971 18.0226 15.4524 20.0131 15.3182 20.0645C15.184 20.1159 14.7663 20.1582 14.3898 20.1586L13.7056 20.1592L10.1566 16.5395C8.20474 14.5487 6.5674 12.8035 6.51814 12.6615C6.38827 12.2877 6.71369 11.4213 7.07985 11.1654C7.25282 11.0445 7.65622 10.9457 7.97607 10.9457C8.479 10.9457 8.777 11.1119 10.1788 12.1737C11.0705 12.8492 12.2617 13.77 12.8261 14.2201C13.3904 14.6702 13.9431 15.0387 14.0543 15.0391C14.3273 15.0403 14.7245 14.6778 20.29 9.35019C22.944 6.80965 25.3187 4.57896 25.567 4.39311C26.0657 4.01994 26.6794 4.0426 27.1316 4.45087ZM43.7567 6.96099C43.514 7.56315 39.1731 18.8375 38.3169 21.0895C37.8009 22.4463 37.3789 23.6143 37.3789 23.685C37.3789 23.7557 38.121 23.8131 39.028 23.8125L40.677 23.8115L41.3884 21.7627L42.0999 19.714L45.4706 19.7531L48.8412 19.7923L49.5795 21.8029L50.3177 23.8136H52.0534H53.7889L53.661 23.4845C53.5906 23.3037 52.2337 19.7996 50.6457 15.698C49.0578 11.5964 47.6238 7.89494 47.459 7.47278L47.1592 6.7051H45.5096C44.0756 6.7051 43.8465 6.73858 43.7567 6.96099ZM79.1052 15.2228L79.1285 23.7404L80.7542 23.7818L82.3801 23.8232L82.3807 20.8573L82.3814 17.8914L84.1031 17.8775C86.7942 17.8559 88.5063 17.2755 89.7045 15.9787C92.1564 13.3252 91.3791 8.95815 88.1859 7.44588C86.8775 6.82632 85.9168 6.7051 82.3165 6.7051H79.082L79.1052 15.2228ZM92.2012 8.02113V9.33717H94.7691H97.337L97.3286 16.5388L97.3204 23.7404L98.9384 23.7818L100.557 23.8232V16.5802V9.33717H103.048H105.54V8.02113V6.7051H98.8708H92.2012V8.02113ZM107.299 15.2593V23.8136H112.65H118V22.4244V21.0353H114.262H110.524V18.8419V16.6485H113.749H116.974V15.3324V14.0164H113.749H110.524V11.6768V9.33717H114.116H117.707V8.02113V6.7051H112.503H107.299V15.2593ZM85.5223 9.49627C86.8237 9.82323 87.8065 11.061 87.8005 12.3655C87.797 13.1282 87.423 14.0903 86.9763 14.4861C86.2806 15.1023 84.4207 15.4735 83.054 15.2691L82.3801 15.1682V12.2528V9.33717H83.6344C84.3244 9.33717 85.1739 9.40882 85.5223 9.49627ZM46.9876 14.1261L48.0706 17.2334H45.5131H42.9557L44.1983 13.62C44.8818 11.6325 45.4457 9.97106 45.4513 9.92778C45.4669 9.80846 45.7994 10.7171 46.9876 14.1261ZM58.6593 11.3946C56.3545 11.847 54.4527 13.7251 53.9612 16.0342C53.3005 19.1383 54.5219 22.0346 57.0167 23.2795C58.9335 24.2362 61.1971 24.3215 63.141 23.5107L63.9106 23.1896V21.6512C63.9106 20.1975 63.8963 20.125 63.654 20.3379C62.6691 21.203 60.6671 21.6797 59.4257 21.3444C57.4247 20.8042 56.3471 18.5114 57.0284 16.2433C57.2614 15.4675 58.0495 14.5345 58.7901 14.1577C59.8716 13.6071 61.994 13.8823 63.4123 14.7566L63.9106 15.0638V13.6077V12.1514L63.2143 11.854C61.8993 11.2922 60.1035 11.111 58.6593 11.3946ZM69.1876 11.6921C67.0162 12.4591 65.6614 14.2679 65.3793 16.7757C65.0486 19.7175 66.2137 22.1561 68.5088 23.326C69.3123 23.7356 70.8512 24.0997 71.7956 24.1035C72.6292 24.1069 74.4552 23.7236 75.274 23.3736L75.9304 23.0928V21.7018V20.3106L75.2342 20.7513C74.8513 20.9937 74.1187 21.3213 73.6063 21.4792C71.0348 22.2719 68.9573 21.2844 68.4469 19.0268L68.339 18.5494H72.5196H76.7003L76.6301 16.9044C76.5068 14.0125 75.4549 12.3684 73.2502 11.6218C72.2629 11.2875 70.2336 11.3226 69.1876 11.6921ZM71.8994 13.5922C72.9206 13.8692 73.5905 14.7262 73.8026 16.027L73.9041 16.6485H71.0898H68.2754L68.3773 16.107C68.6643 14.581 69.5379 13.7691 71.2398 13.447C71.2801 13.4394 71.5769 13.5048 71.8994 13.5922ZM8.114 19.1198C10.4658 19.7384 13.003 21.1729 14.8462 22.9261L15.8673 23.8975L17.206 22.576C17.9423 21.8493 18.9191 21.0354 19.3766 20.7675C21.7176 19.3971 24.2102 18.7009 26.7882 18.6975L28.2907 18.6956V21.1084V23.5211L26.2752 23.522C21.9656 23.5237 18.7214 24.4852 16.7984 26.3301L16.0798 27.0194L15.274 26.2848C13.2396 24.4299 10.114 23.5229 5.75342 23.5217L3.51801 23.5211V21.2059C3.51801 19.9324 3.56756 18.8392 3.62795 18.7765C3.82642 18.5706 6.92829 18.8079 8.114 19.1198Z" fill="#3D3939"/>
</g>
<defs>
<clipPath id="clip0_2_35">
<rect width="118" height="31" fill="white"/>
</clipPath>
</defs>
</svg>
