<svg width="1095" height="57" viewBox="0 0 1095 57" fill="none" xmlns="http://www.w3.org/2000/svg">
<path fill-rule="evenodd" clip-rule="evenodd" d="M18.4101 1.20053C6.55413 5.76853 0.0911276 15.5085 0.00112763 28.9425C-0.114872 46.2325 8.72613 56.8875 23.1671 56.8645C34.6821 56.8465 44.1821 50.2225 49.5491 38.4685C56.9911 22.1715 51.7201 6.58353 37.0131 1.39453C31.9811 -0.381468 22.7641 -0.477468 18.4101 1.20053ZM36.5831 11.5015C41.8381 13.9955 43.9571 17.3355 43.9571 23.1275C43.9571 27.5605 43.5391 28.5275 40.1671 31.8995C37.2941 34.7735 35.2531 35.8575 31.7231 36.3865C27.9951 36.9455 27.0081 37.5115 26.7631 39.2295C26.5541 40.6925 25.6321 41.4705 23.8611 41.6765L21.2651 41.9775L20.6391 32.4365C19.8751 20.8135 20.2171 19.6695 24.3351 20.0705C27.4291 20.3715 27.4601 20.4315 27.7551 26.6185L28.0521 32.8615L31.7551 31.3355C36.5151 29.3735 37.9571 27.3785 37.9571 22.7555C37.9571 19.8725 37.3291 18.5245 35.2071 16.8515C31.1491 13.6525 20.7981 14.3265 15.2811 18.1495C10.8321 21.2335 8.95713 21.5825 8.95713 19.3265C8.95713 17.3725 13.5281 13.0875 17.4571 11.3585C21.7771 9.45653 32.4431 9.53653 36.5831 11.5015ZM64.2071 16.2665C65.6901 17.3925 65.9571 19.2995 65.9571 28.7665C65.9571 39.4185 65.8521 39.9815 63.7071 40.8435C62.0221 41.5205 63.0901 41.7475 67.9571 41.7475C72.8241 41.7475 73.8921 41.5205 72.2071 40.8435C70.3381 40.0915 69.9571 39.1725 69.9571 35.4065V30.8745H74.5341C78.2591 30.8745 79.6551 30.3305 82.0341 27.9515C89.0821 20.9035 82.7781 14.8495 68.4571 14.9115C63.2541 14.9345 62.6891 15.1145 64.2071 16.2665ZM78.6121 18.0025C80.4621 19.5385 80.3121 26.3765 78.3861 28.3035C77.5211 29.1675 75.2711 29.8745 73.3861 29.8745H69.9571V23.5415C69.9571 20.0575 70.2911 16.8735 70.7001 16.4645C71.6431 15.5215 76.8391 16.5325 78.6121 18.0025ZM88.8701 24.1565C81.7851 29.5955 84.7781 41.8745 93.1891 41.8745C96.5961 41.8745 100.957 39.5575 100.957 37.7465C100.957 37.1885 100.25 37.4385 99.3861 38.3035C95.6591 42.0295 88.9571 38.9725 88.9571 33.5455C88.9571 30.9475 89.1211 30.8745 94.9571 30.8745C100.653 30.8745 100.957 30.7505 100.957 28.4315C100.957 23.8845 92.9251 21.0435 88.8701 24.1565ZM106.707 23.9545C105.744 24.5155 104.957 25.8845 104.957 26.9975C104.957 28.3875 105.505 28.9145 106.707 28.6815C107.671 28.4945 108.457 27.4515 108.457 26.3585C108.457 25.0285 109.244 24.2635 110.844 24.0375C113.495 23.6625 114.919 25.2425 114.942 28.5855C114.954 30.3205 114.104 31.0275 111.002 31.8625C104.757 33.5435 102.073 37.5905 105.157 40.6745C106.704 42.2215 111.21 42.2215 112.757 40.6745C113.69 39.7415 114.224 39.7415 115.157 40.6745C115.817 41.3345 117.504 41.8385 118.907 41.7955C120.31 41.7525 120.895 41.4895 120.207 41.2125C119.376 40.8765 118.957 38.3885 118.957 33.7915C118.957 28.2075 118.571 26.4885 116.957 24.8745C114.792 22.7095 109.639 22.2465 106.707 23.9545ZM123.707 23.5365C124.567 23.8835 124.957 26.6435 124.957 32.3745C124.957 38.1055 124.567 40.8655 123.707 41.2125C123.02 41.4895 124.707 41.6995 127.457 41.6795C130.207 41.6595 131.67 41.4365 130.707 41.1855C129.276 40.8115 128.957 39.5905 128.957 34.4925C128.957 30.6355 129.506 27.5165 130.395 26.3155C131.816 24.3975 131.851 24.3985 133.328 26.3745C134.481 27.9175 135.096 28.1045 136.022 27.1915C137.589 25.6475 136.494 22.8745 134.317 22.8745C133.381 22.8745 131.792 23.6195 130.786 24.5295C129.084 26.0695 128.957 26.0695 128.957 24.5295C128.957 23.3125 128.096 22.8955 125.707 22.9535C123.92 22.9965 123.02 23.2595 123.707 23.5365ZM140.565 24.7555C137.575 28.0585 138.864 31.0775 144.457 33.8745C150.422 36.8575 151.399 40.1535 146.483 40.7125C144.185 40.9735 142.993 40.4055 141.238 38.2125L138.967 35.3745L138.963 38.3745C138.959 41.2325 139.177 41.3885 143.576 41.6725C149.114 42.0295 151.957 39.9815 151.957 35.6335C151.957 33.0615 151.34 32.4415 146.916 30.5725C142.949 28.8965 141.937 28.0095 142.166 26.4085C142.615 23.2705 146.357 23.2965 148.842 26.4545L150.957 29.1445V26.1965C150.957 23.4225 150.702 23.2355 146.645 23.0255C143.441 22.8595 141.878 23.3045 140.565 24.7555ZM157.705 25.3985C154.726 28.3785 154.023 31.1905 155.16 35.5795C157.745 45.5545 172.957 42.8145 172.957 32.3745C172.957 24.3135 163.236 19.8675 157.705 25.3985ZM175.386 24.4455C177.742 26.8025 177.605 39.3975 175.207 40.7945C173.838 41.5915 174.436 41.8035 177.957 41.7655C180.432 41.7385 181.895 41.4895 181.207 41.2125C180.394 40.8845 179.957 38.5195 179.957 34.4465C179.957 29.5355 180.372 27.8085 181.883 26.4415C184.428 24.1385 187.202 24.7845 188.063 27.8795C189.213 32.0125 189.037 39.3945 187.757 40.6745C186.824 41.6075 187.435 41.8565 190.507 41.7955C192.679 41.7525 193.895 41.4895 193.207 41.2125C192.359 40.8695 191.957 38.2285 191.957 32.9915C191.957 28.3225 191.483 24.8005 190.757 24.0745C189.083 22.4005 184.826 22.5775 182.18 24.4315C180.168 25.8405 179.957 25.8405 179.957 24.4315C179.957 23.3605 178.999 22.8745 176.886 22.8745C174.093 22.8745 173.957 23.0175 175.386 24.4455ZM96.7731 27.1245C97.0731 29.7255 96.8701 29.8745 93.0231 29.8745C90.7871 29.8745 88.9571 29.3945 88.9571 28.8085C88.9571 23.5175 96.1791 21.9615 96.7731 27.1245ZM167.4 26.0975C169.17 28.6235 169.471 36.0455 167.922 38.9405C167.26 40.1765 165.83 40.8745 163.957 40.8745C162.084 40.8745 160.654 40.1765 159.992 38.9405C158.57 36.2835 158.686 26.5455 160.157 25.0745C162.066 23.1655 165.707 23.6795 167.4 26.0975ZM113.867 38.4835C112.056 40.6655 108.52 39.8165 108.135 37.1065C107.885 35.3455 108.556 34.5235 111.135 33.4325C114.363 32.0665 114.466 32.0965 114.779 34.5105C114.956 35.8775 114.546 37.6645 113.867 38.4835ZM26.4571 46.3605C26.4571 48.5665 23.3481 49.6655 21.7181 48.0355C20.0371 46.3545 21.6951 43.6985 24.2031 44.0545C25.6781 44.2635 26.4571 45.0615 26.4571 46.3605Z" fill="#A6A8AA"/>
<path d="M413.62 23.1944C413.747 20.7579 414.621 18.7669 415.986 17.2136V15.1438H414.171C410.504 15.1438 407.399 16.5493 405.595 19.725H405.489V15.4932H396.083V41.3002H405.491V30.8822C405.491 26.4604 406.785 23.0888 412.006 23.0888C412.574 23.0927 413.106 23.1253 413.62 23.1944Z" fill="#A6A8AA"/>
<path d="M484.851 23.1003C485.633 20.8193 486.9 18.788 488.547 17.1579V15.1418H486.737C483.067 15.1418 479.967 16.5473 478.152 19.7211H478.05V15.4932H468.638V41.3002H478.05V30.8822C478.05 26.4604 479.348 23.0888 484.569 23.0888L484.851 23.1003Z" fill="#A6A8AA"/>
<path d="M432.726 22.1327C431.275 21.3781 429.255 20.8751 427.648 20.8751C426.569 20.8751 424.705 21.3243 424.705 22.6357C424.705 24.3983 427.648 24.6479 428.95 24.9052C433.335 25.7577 436.653 27.7718 436.653 32.5449C436.653 39.3341 430.292 42.1604 424.134 42.1604C420.358 42.1604 416.642 41.1025 413.432 39.1901L416.844 32.7965C418.754 34.1098 421.961 35.4135 424.288 35.4135C425.478 35.4135 427.235 34.8624 427.235 33.4531C427.235 31.4409 424.288 31.3353 421.337 30.5827C418.393 29.8281 415.45 28.4227 415.45 23.7935C415.45 17.4536 421.337 14.6407 427.139 14.6407C430.138 14.6407 433.139 15.092 435.873 16.2996L432.726 22.1327Z" fill="#A6A8AA"/>
<path d="M516.762 41.3003H507.354V38.4298H507.25C505.595 40.995 502.331 42.1508 499.234 42.1508C491.37 42.1508 485.842 35.761 485.842 28.3651C485.842 20.9768 491.272 14.635 499.128 14.635C502.177 14.635 505.388 15.7409 507.352 18.0027V15.4933H516.758L516.762 41.3003ZM495.563 28.4208C495.563 31.6886 497.79 34.2039 501.611 34.2039C505.436 34.2039 507.653 31.6925 507.653 28.4208C507.653 25.2508 505.436 22.5858 501.611 22.5858C497.79 22.5877 495.563 25.2508 495.563 28.4208Z" fill="#A6A8AA"/>
<path d="M467.154 29.9337H447.345C447.345 33.6528 449.367 35.6631 453.244 35.6631C455.26 35.6631 456.706 35.0122 457.742 33.2995H466.793C465.294 39.3879 459.346 42.1546 453.297 42.1546C444.513 42.1546 437.947 37.322 437.947 28.4227C437.947 19.821 443.989 14.6407 452.624 14.6407C461.826 14.6407 467.158 20.1762 467.158 28.9756L467.154 29.9337ZM458.414 24.6479C457.948 22.1826 455.621 20.5736 453.09 20.5736C450.346 20.5736 448.081 21.9771 447.503 24.6479H458.414Z" fill="#A6A8AA"/>
<path d="M366.157 27.9714C366.148 27.7487 366.132 27.5318 366.115 27.311V27.3071V27.3033C365.904 24.909 365.113 22.6683 363.771 20.6446C363.172 19.7422 362.486 18.9224 361.72 18.187C360.601 17.1099 359.305 16.219 357.844 15.5143C355.645 14.4641 353.216 13.9342 350.624 13.9342C350.371 13.9342 350.106 13.938 349.839 13.9476C348.019 14.0302 346.258 14.3758 344.603 14.9844C342.935 15.5873 341.481 16.3841 340.293 17.3403C340.051 17.5323 339.788 17.7685 339.506 18.0277L339.302 18.2273L339.024 18.523H339.026H339.027L338.897 18.6517L338.834 18.7208L338.501 19.0702C338.256 19.3467 338.021 19.6232 337.802 19.8939L337.801 19.8901L337.793 19.8824C337.338 20.4354 336.917 21.0075 336.608 21.5221C336.399 21.8523 336.193 22.1922 335.998 22.532L333.285 28.0175L333.289 28.0214L333.146 28.2998L332.847 28.9065C332.252 30.1103 331.614 31.3104 330.902 32.3011C329.314 34.0426 327.519 34.895 325.211 34.895C325.05 34.895 324.885 34.8874 324.716 34.8778C323.326 34.8221 322.133 34.4938 321.075 33.8678C320.962 33.8006 320.853 33.7315 320.747 33.6605C319.883 33.0864 319.221 32.3491 318.725 31.4294C318.166 30.3868 317.919 29.3212 317.953 28.1922C317.955 28.1615 317.957 28.1346 317.957 28.1097C318.032 26.3125 318.717 24.9148 320.098 23.7071C320.434 23.4172 320.785 23.1714 321.152 22.9525C321.204 22.9218 321.256 22.893 321.308 22.8661C322.333 22.3074 323.5 22.029 324.838 22.029L325.255 22.0405C327.381 22.1211 329.02 22.7855 330.328 24.0815L334.429 16.7182C333.448 16.0616 332.34 15.4971 331.119 15.0382C331.073 15.0209 331.025 15.0017 330.977 14.9863C330.831 14.9345 330.687 14.8807 330.537 14.8327C329.239 14.3988 327.878 14.1319 326.476 14.011C326.442 14.0052 326.403 14.0014 326.369 13.9975C326.154 13.9841 325.935 13.9572 325.72 13.9476C325.486 13.938 325.249 13.9342 325.019 13.9323H324.886C322.308 13.9419 319.912 14.4699 317.721 15.5163C315.267 16.699 313.278 18.4213 311.803 20.6408C310.333 22.8603 309.53 25.3237 309.415 27.9676C309.405 28.1942 309.4 28.4188 309.4 28.6396C309.398 32.3376 310.746 35.5901 313.426 38.3204C316.223 41.185 319.862 42.7287 324.23 42.9111C324.51 42.9226 324.787 42.9303 325.063 42.9303C327.534 42.9303 329.821 42.4906 331.872 41.6113C332.384 41.3924 332.881 41.1351 333.39 40.849C333.667 40.6897 333.928 40.5207 334.187 40.3402L334.379 40.2116L334.702 39.9908C335.089 39.7124 335.452 39.4109 335.806 39.0903L335.929 38.9732C336.136 38.7754 336.343 38.5757 336.539 38.3703L337.274 37.5389L337.555 37.1875L337.685 36.9955L337.816 36.8074C338.908 34.9718 342.464 28.2921 342.464 28.2921V28.2786L342.675 27.8716L342.852 27.5529C343.376 26.5986 343.755 25.9209 344.256 25.2085L344.269 25.1874C345.438 23.492 347.449 22.2843 349.818 22.0808C353.792 21.7391 357.275 24.3503 357.596 27.9138C357.915 31.4774 354.95 34.6435 350.976 34.9872C350.148 35.0582 349.344 35.0026 348.585 34.8355L348.566 34.8432C345.65 34.2365 343.793 32.1091 342.877 31.1587L339.052 38.1917C339.052 38.1917 340.241 39.3898 341.055 39.9889C341.871 40.586 342.925 41.1735 343.766 41.5383C345.807 42.41 348.027 42.9323 350.478 42.9323C350.763 42.9323 350.705 42.9322 351.001 42.9207C355.365 42.7383 359.255 41.066 362.06 38.2013C364.717 35.4806 366.159 32.3741 366.173 28.6972V28.5878C366.171 28.3842 366.165 28.1788 366.157 27.9714Z" fill="#A6A8AA"/>
<path d="M380.788 42.1719C378.805 42.1719 377.005 41.9415 375.391 41.4807C373.776 41.0199 372.397 40.2922 371.255 39.2938C370.109 38.2954 369.226 37.0243 368.603 35.4825C367.981 33.9408 367.67 32.0822 367.67 29.9164V15.4874H376.746V29.8012C376.746 31.4236 377.134 32.5987 377.908 33.3321C378.684 34.0675 379.669 34.4342 380.863 34.4342C382.084 34.4342 383.075 34.0924 383.839 33.407C384.599 32.7215 384.983 31.5849 384.983 29.9874V15.4874H394.059V29.7263C394.059 31.9689 393.74 33.8755 393.105 35.4441C392.469 37.0147 391.573 38.2973 390.419 39.2957C389.259 40.2941 387.863 41.0199 386.222 41.4826C384.58 41.9415 382.769 42.1719 380.788 42.1719Z" fill="#A6A8AA"/>
<g clip-path="url(#clip0_2_191)">
<path d="M669.218 28.9481C669.218 32.1213 670.435 34.3665 674.053 34.3665C676.643 34.3665 678.109 32.7799 678.109 32.7799L678.327 33.5582C678.421 33.8576 678.546 34.0671 678.889 34.0671H679.482C679.794 34.0671 680.074 33.7977 680.074 33.4983V22.6616C680.074 22.3622 679.794 22.0928 679.482 22.0928H678.515C678.203 22.0928 677.922 22.3622 677.922 22.6616V30.6544C677.922 30.6544 676.58 32.3607 674.209 32.3607C672.462 32.3607 671.402 31.2531 671.402 28.978V22.6616C671.402 22.3622 671.121 22.0928 670.809 22.0928H669.811C669.499 22.0928 669.218 22.3622 669.218 22.6616V28.9481Z" fill="#A7A9AB"/>
<path fill-rule="evenodd" clip-rule="evenodd" d="M702.043 26.4636C698.829 26.4636 697.051 28.17 697.051 30.4452C697.051 32.84 698.705 34.3668 700.888 34.3668C702.823 34.3668 704.102 33.4388 704.757 32.8101L705.006 33.6183C705.1 33.8878 705.194 34.0674 705.537 34.0674H706.129C706.441 34.0674 706.722 33.798 706.722 33.4987V26.8528C706.722 23.3504 705.942 21.7937 702.76 21.7937C700.42 21.7937 698.611 22.4822 698.424 22.572C698.143 22.6918 697.956 22.8714 698.081 23.2306L698.33 23.979C698.424 24.2484 698.611 24.3981 698.923 24.2784C699.484 24.0688 700.951 23.6198 702.667 23.6198C704.445 23.6198 704.726 24.6376 704.694 26.8528C704.694 26.8528 703.384 26.4636 702.043 26.4636ZM701.231 32.5706C699.89 32.5706 699.047 31.6426 699.047 30.4451C699.047 28.8884 700.295 28.0503 702.042 28.0503C703.415 28.0503 704.288 28.3197 704.663 28.5293V30.8942C704.132 31.6426 702.791 32.5706 701.231 32.5706Z" fill="#A5A8A9"/>
<path d="M709.627 28.1102C709.627 31.7025 712.559 34.3668 716.022 34.3668C718.144 34.3668 719.859 33.2891 720.795 31.8522C720.983 31.5528 720.889 31.2235 720.577 31.014L720.234 30.7745C719.891 30.535 719.672 30.4751 719.298 30.8344C718.58 31.4929 717.863 32.3909 715.991 32.3909C713.651 32.3909 711.873 30.4751 711.873 28.0802C711.873 25.6854 713.682 23.8293 716.022 23.8293C717.239 23.8293 718.268 24.3981 718.892 25.0866C719.173 25.3261 719.329 25.6255 719.797 25.2064L720.39 24.7274C720.671 24.5179 720.733 24.1586 720.515 23.8892C719.392 22.5122 717.925 21.7937 716.054 21.7937C712.653 21.7937 709.627 24.5777 709.627 28.1102Z" fill="#A5A8A9"/>
<path fill-rule="evenodd" clip-rule="evenodd" d="M728.787 26.4636C725.574 26.4636 723.796 28.17 723.796 30.4452C723.796 32.84 725.449 34.3668 727.633 34.3668C729.567 34.3668 730.846 33.4388 731.501 32.8101L731.751 33.6183C731.844 33.8878 731.938 34.0674 732.281 34.0674H732.874C733.186 34.0674 733.467 33.798 733.467 33.4987V26.8528C733.467 23.3504 732.687 21.7937 729.505 21.7937C727.165 21.7937 725.356 22.4822 725.168 22.572C724.888 22.6918 724.7 22.8714 724.825 23.2306L725.075 23.979C725.168 24.2484 725.356 24.3981 725.668 24.2784C726.229 24.0688 727.695 23.6198 729.411 23.6198C731.189 23.6198 731.47 24.6376 731.439 26.8528C731.439 26.8528 730.129 26.4636 728.787 26.4636ZM727.975 32.5706C726.633 32.5706 725.791 31.6426 725.791 30.4451C725.791 28.8884 727.039 28.0503 728.786 28.0503C730.159 28.0503 731.032 28.3197 731.406 28.5293V30.8942C730.876 31.6426 729.535 32.5706 727.975 32.5706Z" fill="#A5A8A9"/>
<path fill-rule="evenodd" clip-rule="evenodd" d="M742.361 21.7931C738.618 21.7931 736.372 24.5472 736.372 28.0498C736.372 31.4924 738.868 34.3662 742.049 34.3662C744.389 34.3662 745.887 32.7796 745.887 32.7796L746.074 33.5879C746.136 33.8573 746.324 34.0668 746.604 34.0668H747.259C747.572 34.0668 747.852 33.7975 747.852 33.4981V16.501C747.852 16.2017 747.572 15.9323 747.259 15.9323H746.292C745.98 15.9323 745.699 16.2017 745.699 16.501V22.5715C745.699 22.5715 744.42 21.7931 742.361 21.7931ZM742.266 32.4801C739.99 32.4801 738.555 30.4145 738.555 28.0795C738.555 25.6846 739.927 23.7987 742.641 23.7987C744.357 23.7987 745.667 24.5171 745.667 24.5171V30.5043C745.667 30.5043 744.513 32.4801 742.266 32.4801Z" fill="#A5A8A9"/>
<path fill-rule="evenodd" clip-rule="evenodd" d="M756.87 21.7937C753.095 21.7937 750.755 24.6975 750.755 28.0802C750.755 31.5228 753.095 34.3668 756.87 34.3668C759.023 34.3668 760.707 33.5584 761.456 32.9897C761.924 32.6604 761.799 32.4808 761.581 32.2114C761.487 32.0917 761.401 31.9794 761.315 31.8671C761.23 31.7549 761.144 31.6426 761.051 31.5228C760.823 31.2225 760.647 31.3206 760.286 31.5219C760.252 31.5413 760.215 31.5617 760.177 31.5827C759.459 32.0018 758.399 32.4808 757.088 32.4808C754.873 32.4808 753.033 30.5948 752.908 28.5892H761.893C762.174 28.5892 762.423 28.3796 762.454 28.0802C762.486 27.8706 762.517 27.4815 762.517 27.272C762.517 24.1287 760.146 21.7937 756.87 21.7937ZM760.362 26.9127H752.938C753.156 25.0567 754.779 23.6198 756.869 23.6198C758.772 23.6198 760.269 25.1765 760.362 26.9127Z" fill="#A5A8A9"/>
<path d="M765.423 33.4987C765.423 33.798 765.703 34.0674 766.016 34.0674H766.982C767.294 34.0674 767.576 33.798 767.576 33.4987V25.5058C767.576 25.5058 768.916 23.7994 771.132 23.7994C773.034 23.7994 774.095 24.907 774.095 27.1822V33.4987C774.095 33.798 774.375 34.0674 774.688 34.0674H775.686C775.998 34.0674 776.279 33.798 776.279 33.4987V27.1822C776.279 26.5535 776.217 25.9847 776.123 25.4758C776.56 25.0866 777.901 23.7994 779.929 23.7994C781.738 23.7994 782.736 24.937 782.736 27.1822V33.4987C782.736 33.798 783.018 34.0674 783.329 34.0674H784.328C784.639 34.0674 784.921 33.798 784.921 33.4987V27.1822C784.921 24.0688 783.704 21.7937 780.085 21.7937C777.59 21.7937 775.593 23.6198 775.437 23.7395C774.625 22.4822 773.284 21.7937 771.444 21.7937C768.854 21.7937 767.388 23.3803 767.388 23.3803L767.107 22.4523C767.044 22.2128 766.889 22.0931 766.608 22.0931H766.016C765.703 22.0931 765.423 22.3625 765.423 22.6618V33.4987Z" fill="#A5A8A9"/>
<path d="M793.699 34.0372L791.173 40.1841C790.954 40.6032 791.204 40.9325 791.671 40.9325H792.826C793.044 40.9325 793.263 40.7529 793.356 40.5732L801.467 22.7813C801.685 22.3921 801.467 22.0928 800.999 22.0928H799.814C799.595 22.0928 799.377 22.2425 799.284 22.4221L794.916 31.5824L790.268 22.4221C790.174 22.2425 789.986 22.0928 789.737 22.0928H788.365C787.897 22.0928 787.71 22.3622 787.897 22.7514L793.699 34.0372Z" fill="#A5A8A9"/>
<path d="M682.977 33.4987C682.977 33.798 683.258 34.0674 683.57 34.0674H684.537C684.849 34.0674 685.129 33.798 685.129 33.4987V25.5058C685.129 25.5058 686.814 23.7994 689.154 23.7994C690.901 23.7994 691.961 24.907 691.961 27.1822V33.4987C691.961 33.798 692.242 34.0674 692.554 34.0674H693.552C693.864 34.0674 694.145 33.798 694.145 33.4987V27.1822C694.145 24.0688 692.928 21.7937 689.31 21.7937C686.72 21.7937 684.942 23.3803 684.942 23.3803L684.661 22.4523C684.599 22.2128 684.443 22.0931 684.162 22.0931H683.57C683.258 22.0931 682.977 22.3625 682.977 22.6618V33.4987Z" fill="#A7A9AB"/>
<path d="M632.922 18.2564C634.081 25.3139 640.453 30.7113 648.14 30.7113C655.749 30.7113 662.07 25.4226 663.322 18.4701C663.482 17.8174 663.548 17.2961 663.528 16.8494C663.528 16.3377 663.146 15.9404 662.615 15.9404H661.755H634.669H633.678C633.148 15.9404 632.766 16.3371 632.765 16.8482L632.762 16.8481C632.763 16.8595 632.763 16.871 632.764 16.8824C632.75 17.2714 632.801 17.7172 632.922 18.2564Z" fill="#A5A8A9"/>
<path d="M655.703 39.7518C655.124 36.2232 651.938 33.5244 648.094 33.5244C644.29 33.5244 641.129 36.1688 640.503 39.645C640.423 39.9714 640.39 40.232 640.4 40.4554C640.4 40.7112 640.591 40.9098 640.856 40.9098H641.287H654.83H655.325C655.59 40.9098 655.781 40.7115 655.782 40.456H655.783C655.783 40.4502 655.782 40.4446 655.782 40.4389C655.789 40.2443 655.764 40.0214 655.703 39.7518Z" fill="#A7A9AB"/>
</g>
<g clip-path="url(#clip1_2_191)">
<path d="M930.868 2.85291H917.762V54.0063H930.868V2.85291Z" fill="#A6A8AA"/>
<path d="M936.27 2.85828H975.864V13.3158H949.371V22.7038H975.789V32.9507H949.371V43.5487H976.005V54.0062H936.27V2.85828Z" fill="#A6A8AA"/>
<path d="M980.92 2.85828H994.096V42.9113H1018.17V54.0062H980.92V2.85828Z" fill="#A6A8AA"/>
<path d="M1023.08 13.2402H1008.41V2.85828H1050.93V13.2402H1036.19V54.0062H1023.08V13.2402Z" fill="#A6A8AA"/>
<path d="M1064.07 37.0073C1064.21 42.8411 1067.48 45.8282 1073.75 45.8282C1079.23 45.8282 1082.15 43.9052 1082.15 40.7777C1082.15 39.0707 1081.37 37.7906 1080.16 37.1532C1077.1 35.5867 1071.26 34.5928 1063.78 31.6003C1056.37 28.6834 1052.53 23.7734 1052.53 17.4427C1052.53 7.83857 1060.15 1.43225 1072.97 1.43225C1085.79 1.43225 1093.05 8.11946 1093.05 18.2961H1080.73C1080.16 13.5319 1077.38 11.3226 1072.11 11.3226C1067.69 11.3226 1064.99 13.386 1064.99 15.9464C1064.99 19.787 1068.98 20.5702 1077.03 23.2062C1082.94 25.1292 1087.21 26.4742 1089.7 28.4674C1093.05 31.1736 1094.76 34.8737 1094.76 39.2814C1094.76 49.242 1086.85 55.4323 1072.46 55.4323C1059.15 55.4323 1052.24 49.3824 1051.46 37.0073H1064.06H1064.07Z" fill="#A6A8AA"/>
</g>
<defs>
<clipPath id="clip0_2_191">
<rect width="169" height="25" fill="white" transform="translate(632.762 15.9323)"/>
</clipPath>
<clipPath id="clip1_2_191">
<rect width="177" height="54" fill="white" transform="translate(917.762 1.43225)"/>
</clipPath>
</defs>
</svg>
