<svg width="372" height="372" viewBox="0 0 372 372" fill="none" xmlns="http://www.w3.org/2000/svg">
<path d="M273.339 322.176L245.641 358.864C242.809 362.44 238.723 364.806 234.212 365.483C229.7 366.16 225.1 365.096 221.344 362.508L160.602 316.101C159.325 318.557 157.863 320.913 156.228 323.147C147.02 334.935 133.521 342.6 118.679 344.466C103.838 346.333 88.8613 342.25 77.0209 333.109C64.9647 324.229 56.9176 310.935 54.6408 296.135C52.364 281.336 56.0429 266.238 64.8725 254.144C66.4921 251.907 68.2789 249.795 70.2177 247.827L7.28902 200.691C3.71252 197.86 1.34621 193.774 0.669499 189.263C-0.00721452 184.751 1.05627 180.151 3.6445 176.395L30.128 139.949C32.8947 143.104 35.9898 145.955 39.3608 148.453C51.2012 157.594 66.1781 161.677 81.0194 159.811C95.8607 157.944 109.36 150.28 118.568 138.492C127.398 126.399 131.077 111.3 128.8 96.5008C126.523 81.7015 118.476 68.407 106.42 59.5271C103.088 57.0514 99.5051 54.934 95.7294 53.2099L125.614 13.6061C128.446 10.0296 132.532 7.66329 137.043 6.98658C141.555 6.30986 146.155 7.37335 149.911 9.96157L211.625 54.9107C221.017 43.6241 234.427 36.4281 249.024 34.8415C263.621 33.2548 278.263 37.4017 289.861 46.4068C301.698 55.0759 309.707 68.002 312.2 82.4607C314.692 96.9193 311.475 111.781 303.224 123.914L364.452 170.563C368.029 173.395 370.395 177.481 371.072 181.992C371.748 186.504 370.685 191.104 368.097 194.86L340.155 233.249C337.911 230.865 335.473 228.671 332.866 226.689C327.027 222.286 320.378 219.076 313.299 217.242C306.219 215.409 298.848 214.988 291.605 216.003C284.363 217.018 277.392 219.45 271.089 223.16C264.787 226.869 259.277 231.784 254.873 237.623C245.981 249.415 242.137 264.257 244.187 278.883C246.238 293.51 254.015 306.723 265.807 315.615C268.129 318.01 270.648 320.205 273.339 322.176Z" fill="#5D9CEC"/>
<path d="M192.188 93.7856C192.188 109.38 198.562 124.335 209.907 135.362C221.253 146.389 236.641 152.584 252.687 152.584C268.732 152.584 284.12 146.389 295.466 135.362C306.812 124.335 313.186 109.38 313.186 93.7856C313.186 78.1913 306.812 63.2357 295.466 52.2089C284.12 41.1821 268.732 34.9873 252.687 34.9873C236.641 34.9873 221.253 41.1821 209.907 52.2089C198.562 63.2357 192.188 78.1913 192.188 93.7856Z" fill="#FFCE54"/>
</svg>
